<svg xmlns="http://www.w3.org/2000/svg" width="14.011" height="18.68" viewBox="0 0 14.011 18.68">
  <path id="Trazado_7018" data-name="Trazado 7018" d="M46.451,22.672a2.786,2.786,0,0,1-2.823-2.748,2.737,2.737,0,0,1,2.463-2.733,6.727,6.727,0,0,0,4.042-2.256,12.18,12.18,0,0,1,.521,3.534A4.208,4.208,0,0,1,46.451,22.672ZM48.017,6.62a18.8,18.8,0,0,1,.648,4.2,3.042,3.042,0,0,1-2.989,3.269A3.19,3.19,0,0,1,42.5,10.821l.024-.316A12.1,12.1,0,0,0,39.7,18.294a7.006,7.006,0,1,0,14.011,0A14.989,14.989,0,0,0,48.017,6.62Z" transform="translate(-39.698 -6.62)" fill="#f92e4b"/>
</svg>
