<svg width="4174" height="4205" viewBox="0 0 4174 4205" fill="none" xmlns="http://www.w3.org/2000/svg">
<path d="M3224.25 565.748C3482.71 830.076 3583.4 1236.22 3665.63 1652.42C3747.86 2068.62 3811.65 2495.76 3634.56 2767.62C3458.33 3039.5 3041.29 3156.15 2644.37 3279.49C2247.5 3403.68 1870.73 3535.44 1576.17 3431.39C1282.5 3327.32 1071.03 2989.16 792.437 2629.18C514.685 2270.03 169.807 1889.9 240.289 1598.72C311.614 1308.38 797.481 1107.83 1181.8 864.482C1566.13 621.97 1848.91 337.505 2197.99 256.964C2547.91 177.231 2964.96 300.578 3224.25 565.748Z" fill="#F0F0F0"/>
<path fill-rule="evenodd" clip-rule="evenodd" d="M2125.73 1581.98C2110.58 1688 2201.33 1856.21 2116.19 2005.99C2002.63 2205.78 1527.34 2079.04 1479.82 2055.82C1448.56 2040.49 1416.99 2020.65 1419.61 1904.11C1422.24 1787.58 1607.16 1622.63 1617.84 1491C1624.4 1411 1665.14 1206.91 1749.86 1171.37C2090.87 979.524 2140.86 1475.94 2125.73 1581.98Z" fill="#FB5D64"/>
<path d="M1450.74 1749.92C1506.84 1659.8 1585.04 1561.9 1591.92 1477.61C1598.47 1397.67 1636.97 1186.09 1723.92 1157.98" stroke="#1B3C87" stroke-width="17.9" stroke-linecap="round" stroke-linejoin="round"/>
<path d="M1453.9 2042.55C1434.87 2022.59 1406.57 2012.19 1396.93 1950.84" stroke="#1B3C87" stroke-width="17.9" stroke-linecap="round" stroke-linejoin="round"/>
<path fill-rule="evenodd" clip-rule="evenodd" d="M2864.02 1562.11H3688.4V2015.99H2864.02V1562.11Z" fill="#EAF0FF"/>
<path fill-rule="evenodd" clip-rule="evenodd" d="M2551.64 2561.29C2575.68 2602.15 2645.45 2716.19 2645.45 2716.19C2645.45 2716.19 2981.41 2234.88 3001.61 2205.8C3021.8 2176.73 3018.52 2091.71 3040.62 2092.73C3062.72 2093.75 3464.56 2085.04 3464.56 2123.5C3464.56 2161.95 3230.97 2215.79 3184.82 2246.54C3138.67 2277.29 2748.39 3079.99 2596.51 3079.99C2444.62 3079.99 2300.43 2885.8 2287.93 2834.87C2275.43 2783.93 2353.92 2225.25 2551.64 2561.29Z" fill="white"/>
<path d="M3152.23 2043.23C3276.27 2044.18 3439.04 2049.57 3439.04 2074.04C3439.04 2112.49 3205.44 2166.32 3159.3 2197.08C3137.45 2211.65 3038.43 2399.3 2924.11 2592.85" stroke="#1B3C87" stroke-width="17.9" stroke-linecap="round" stroke-linejoin="round"/>
<path d="M2690.56 2941.57C2643.95 2996.24 2602.37 3030.54 2570.98 3030.54C2419.09 3030.54 2274.89 2836.35 2262.41 2785.4C2249.92 2734.45 2328.4 2175.8 2526.12 2511.84C2550.14 2552.69 2619.93 2666.74 2619.93 2666.74C2619.93 2666.74 2955.88 2185.42 2976.07 2156.34C2987.25 2140.3 2991.23 2107.13 2996.31 2080.85" stroke="#1B3C87" stroke-width="17.9" stroke-linecap="round" stroke-linejoin="round"/>
<path fill-rule="evenodd" clip-rule="evenodd" d="M2158.33 2038.68C2363.93 1947.47 2583.97 2430.09 2589.29 2534.09C2528.73 2578.59 2248.93 2696.62 2182.64 2690.03C2127.14 2603.59 1913.52 2147.3 2158.33 2038.68Z" fill="#F92E4B"/>
<path d="M2118.56 2002.7C2324.16 1911.5 2544.19 2394.12 2549.53 2498.12C2488.96 2542.62 2209.16 2660.65 2142.88 2654.05C2087.43 2567.61 1873.75 2111.3 2118.56 2002.7Z" stroke="#1B3C87" stroke-width="17.9" stroke-linecap="round" stroke-linejoin="round"/>
<path d="M3123.86 1526.07H3643.73V1979.96H2819.39V1674.55" stroke="#1B3C87" stroke-width="17.9" stroke-linecap="round" stroke-linejoin="round"/>
<path d="M3375.76 1677.62L3551.1 1873.86" stroke="#1B3C87" stroke-width="17.9" stroke-linecap="round" stroke-linejoin="round"/>
<path d="M2958.35 1599.89L3229.83 1749.52" stroke="#1B3C87" stroke-width="17.9" stroke-linecap="round" stroke-linejoin="round"/>
<path d="M3236.15 1753.86L3633.13 1537.58" stroke="#1B3C87" stroke-width="17.9" stroke-linecap="round" stroke-linejoin="round"/>
<path d="M2822.46 1979.26L3093.59 1675.96" stroke="#1B3C87" stroke-width="17.9" stroke-linecap="round" stroke-linejoin="round"/>
<path fill-rule="evenodd" clip-rule="evenodd" d="M1878.5 1892.17C2332.45 1896.39 2420.55 2649.57 2284.5 3378.5C2295.8 3457.33 1579.37 3500.2 1460.5 3420C1341.63 3339.8 1262.71 1886.45 1878.5 1892.17Z" fill="#F92E4B"/>
<path d="M1601.31 3438.72C1498.25 3432.99 1430.42 3382.07 1395.5 3358.5C1276.64 3278.3 1234.67 1862.38 1850.42 1868.1C2094.56 1870.38 2233.1 2098.45 2287.82 2422.17" stroke="#1B3C87" stroke-width="17.9" stroke-linecap="round" stroke-linejoin="round"/>
<path d="M2314.15 2869.36C2309.04 3037.32 2289.42 3213.28 2257.17 3386.08C2228.9 3406.43 2104.6 3424.78 1957.2 3434.6" stroke="#1B3C87" stroke-width="17.9" stroke-linecap="round" stroke-linejoin="round"/>
<path fill-rule="evenodd" clip-rule="evenodd" d="M1522.88 2031.51C1756.44 2074.79 1627.5 2645.54 1564.09 2742.77C1483.77 2745.95 1169.88 2681.48 1118.09 2634.97C1127.62 2522.95 1244.76 1979.92 1522.88 2031.51Z" fill="#F92E4B"/>
<path d="M1099.92 2596.01C1109.42 2483.98 1226.58 1940.94 1504.69 1992.55" stroke="#1B3C87" stroke-width="17.9" stroke-linecap="round" stroke-linejoin="round"/>
<path d="M1634.8 2351.43C1621.04 2504.2 1576.06 2657.55 1545.9 2703.8C1503.76 2705.46 1397.31 2688.51 1298.16 2665.29" stroke="#1B3C87" stroke-width="17.9" stroke-linecap="round" stroke-linejoin="round"/>
<path fill-rule="evenodd" clip-rule="evenodd" d="M1174.26 2647.5C1150.79 2719.86 1117.65 2959.52 1126.5 3048.5C1135.35 3137.48 1358 3386.5 1495.33 3445.5C1771 3479 1784.5 3459.5 1784.5 3459.5C1751.25 3410.61 1394.01 3091.27 1395.92 3029.67C1397.82 2968.07 1473.82 2762.03 1495.33 2726.83" fill="white"/>
<path d="M1379.46 3079.76C1368.49 3040.65 1362.05 3012.27 1362.41 3000.94C1364.36 2939.3 1440.3 2733.29 1461.8 2698.09" stroke="#1B3C87" stroke-width="17.9" stroke-linecap="round" stroke-linejoin="round"/>
<path fill-rule="evenodd" clip-rule="evenodd" d="M3535.06 1544.26C3535.06 1516.47 3543.3 1489.31 3558.73 1466.21C3574.16 1443.11 3596.1 1425.1 3621.77 1414.47C3647.44 1403.83 3675.69 1401.05 3702.94 1406.47C3730.19 1411.89 3755.22 1425.27 3774.86 1444.92C3794.51 1464.56 3807.89 1489.59 3813.31 1516.84C3818.73 1544.09 3815.94 1572.34 3805.31 1598.01C3794.68 1623.68 3776.67 1645.61 3753.57 1661.05C3730.47 1676.48 3703.3 1684.72 3675.52 1684.72C3638.27 1684.72 3602.54 1669.92 3576.2 1643.58C3549.86 1617.24 3535.06 1581.51 3535.06 1544.26Z" fill="#F92E4B"/>
<path d="M3788.22 1561.82C3780.86 1586.84 3766.69 1609.31 3747.28 1626.73C3727.88 1644.15 3704.01 1655.82 3678.34 1660.45C3652.68 1665.07 3626.24 1662.46 3601.97 1652.91C3577.71 1643.35 3556.58 1627.24 3540.96 1606.36C3525.34 1585.48 3515.83 1560.67 3513.51 1534.7C3511.19 1508.72 3516.14 1482.62 3527.81 1459.3C3539.49 1435.98 3557.42 1416.37 3579.6 1402.67C3601.79 1388.96 3627.35 1381.7 3653.42 1381.7" stroke="#1B3C87" stroke-width="17.9" stroke-linecap="round" stroke-linejoin="round"/>
<path fill-rule="evenodd" clip-rule="evenodd" d="M1651.59 1459.97C1642.67 1274.75 1749.08 1119.12 1889.28 1112.43C2029.48 1105.74 2150.37 1250.25 2159.29 1435.52C2168.2 1620.8 2061.78 1776.39 1921.59 1783.13C1781.41 1789.87 1660.51 1645.2 1651.59 1459.97Z" fill="white"/>
<path fill-rule="evenodd" clip-rule="evenodd" d="M1684.62 1581.29C1693.49 1625.37 1728.79 1868.51 1726.17 2010.15C1768.43 2047.22 1930.68 2042.11 1958.6 2005.7C1952.45 1948 1947.09 1805.82 1960.78 1768.07" fill="white"/>
<path d="M1934.95 1975.96C1928.79 1918.25 1917.99 1796.05 1931.68 1758.25" stroke="#1B3C87" stroke-width="17.9" stroke-linecap="round" stroke-linejoin="round"/>
<path d="M1688.39 1750.29C1696.94 1828.98 1703.72 1915.37 1702.53 1980.4C1725.28 2000.38 1782.88 2008.11 1835.54 2005.32" stroke="#1B3C87" stroke-width="17.9" stroke-linecap="round" stroke-linejoin="round"/>
<path d="M1660.97 1551.52C1663.18 1562.55 1667.05 1586.05 1671.58 1617.31" stroke="#1B3C87" stroke-width="17.9" stroke-linecap="round" stroke-linejoin="round"/>
<path d="M2124.32 1548.38C2090.7 1668.3 2005.37 1755 1901.52 1760C1860.05 1762 1820.27 1750.82 1784.58 1729.12" stroke="#1B3C87" stroke-width="17.9" stroke-linecap="round" stroke-linejoin="round"/>
<path d="M2112.72 1282.2C2123.55 1311.23 2131.16 1341.37 2135.4 1372.06" stroke="#1B3C87" stroke-width="17.9" stroke-linecap="round" stroke-linejoin="round"/>
<path fill-rule="evenodd" clip-rule="evenodd" d="M1854.47 1411.56C1853.5 1391.26 1862.18 1374.34 1873.87 1373.78C1885.56 1373.22 1895.84 1389.23 1896.81 1409.52C1897.78 1429.81 1889.11 1446.74 1877.41 1447.3C1865.71 1447.86 1855.46 1431.85 1854.47 1411.56Z" fill="#1B3C87"/>
<path fill-rule="evenodd" clip-rule="evenodd" d="M2229.11 1353.43C2229.11 1353.29 2229.32 1353.18 2229.59 1353.16C2229.87 1353.15 2230.11 1353.24 2230.11 1353.39C2230.11 1353.53 2229.9 1353.64 2229.62 1353.65C2229.34 1353.66 2229.12 1353.57 2229.11 1353.43Z" fill="#1B3C87"/>
<path d="M1976.32 1422.54C1979.33 1453.73 1997.31 1507.56 2043.34 1523.25" stroke="#1B3C87" stroke-width="17.9" stroke-linecap="round" stroke-linejoin="round"/>
<path d="M1867.92 1587.39C1867.81 1605.75 1883.04 1632.91 1908.03 1635.68" stroke="#1B3C87" stroke-width="17.9" stroke-linecap="round" stroke-linejoin="round"/>
<path d="M2109.82 1590.41C2098.08 1647.98 2134.64 1794.64 2128.57 1862.32C2122.5 1929.99 2085.04 1959.98 2085.04 1959.98" stroke="#1B3C87" stroke-width="17.9" stroke-linecap="round" stroke-linejoin="round"/>
<path fill-rule="evenodd" clip-rule="evenodd" d="M1615.85 1087.38C1615.02 1070.18 1619.31 1053.11 1628.18 1038.35C1637.04 1023.58 1650.09 1011.77 1665.67 1004.42C1681.25 997.074 1698.65 994.508 1715.69 997.051C1732.72 999.594 1748.62 1007.13 1761.37 1018.71C1774.12 1030.29 1783.15 1045.39 1787.32 1062.1C1791.49 1078.81 1790.61 1096.39 1784.79 1112.6C1778.97 1128.81 1768.48 1142.93 1754.63 1153.18C1740.79 1163.42 1724.22 1169.33 1707.01 1170.16C1695.59 1170.71 1684.17 1169.01 1673.41 1165.14C1662.65 1161.28 1652.75 1155.34 1644.29 1147.65C1635.82 1139.96 1628.95 1130.68 1624.07 1120.34C1619.19 1110 1616.4 1098.8 1615.85 1087.38V1087.38Z" fill="#FB5D64"/>
<path d="M1618.8 1125.53C1609.07 1113.39 1602.77 1098.87 1600.55 1083.47C1598.34 1068.07 1600.29 1052.35 1606.2 1037.96C1612.12 1023.57 1621.78 1011.03 1634.19 1001.64C1646.59 992.254 1661.29 986.36 1676.75 984.575C1692.2 982.79 1707.85 985.179 1722.07 991.494C1736.29 997.808 1748.56 1007.82 1757.6 1020.48C1766.64 1033.14 1772.12 1048 1773.47 1063.5C1774.83 1079 1772 1094.57 1765.29 1108.61" stroke="#1B3C87" stroke-width="17.9" stroke-linecap="round" stroke-linejoin="round"/>
<path fill-rule="evenodd" clip-rule="evenodd" d="M1891.08 1105.27C1750.88 1112.02 1644.52 1267.65 1653.39 1452.89C1654.52 1476.68 1657.59 1500.34 1662.57 1523.63C1708.1 1455.22 1768.51 1383.55 1808.9 1343.39C1900.26 1339.64 2027.47 1311.06 2127.14 1280.6C2080.27 1172.28 1990.67 1100.48 1891.08 1105.27Z" fill="#FB5D64"/>
<path d="M1640.47 1322.87C1628.39 1382.21 1628.7 1443.4 1641.39 1502.62C1686.93 1434.2 1747.34 1362.53 1787.72 1322.38C1840.27 1320.22 1904.76 1309.83 1969.04 1295.59" stroke="#1B3C87" stroke-width="17.9" stroke-linecap="round" stroke-linejoin="round"/>
<path d="M1647.14 1295.08C1643.87 1305.99 1641.05 1317.18 1638.67 1328.64" stroke="#1B3C87" stroke-width="17.9" stroke-linecap="round" stroke-linejoin="round"/>
<path d="M2104.13 1265.36C2057.24 1157.05 1967.64 1085.24 1868.06 1090.03C1766.11 1094.95 1682.01 1178.58 1647.16 1295.08" stroke="#1B3C87" stroke-width="17.9" stroke-linecap="round" stroke-linejoin="round"/>
<path fill-rule="evenodd" clip-rule="evenodd" d="M1707.39 1538.66C1697.93 1546 1686.59 1550.51 1674.68 1551.68C1662.76 1552.84 1650.76 1550.61 1640.06 1545.24C1629.36 1539.87 1620.4 1531.58 1614.21 1521.33C1608.02 1511.08 1604.86 1499.29 1605.1 1487.32C1605.33 1475.35 1608.94 1463.69 1615.52 1453.69C1622.1 1443.69 1631.38 1435.76 1642.28 1430.81C1653.18 1425.86 1665.26 1424.09 1677.12 1425.72C1688.98 1427.34 1700.14 1432.29 1709.31 1440" fill="white"/>
<path d="M1691.73 1526.58C1682.27 1533.92 1670.93 1538.43 1659.02 1539.6C1647.1 1540.76 1635.1 1538.53 1624.4 1533.16C1613.7 1527.79 1604.74 1519.5 1598.55 1509.25C1592.36 1499 1589.2 1487.21 1589.44 1475.24C1589.67 1463.27 1593.28 1451.62 1599.86 1441.61C1606.45 1431.61 1615.72 1423.68 1626.62 1418.73C1637.52 1413.78 1649.6 1412.01 1661.46 1413.64C1673.32 1415.27 1684.48 1420.22 1693.65 1427.92" stroke="#1B3C87" stroke-width="17.9" stroke-linecap="round" stroke-linejoin="round"/>
</svg>
