<svg xmlns="http://www.w3.org/2000/svg" xmlns:xlink="http://www.w3.org/1999/xlink" width="461.698" height="457.438" viewBox="0 0 461.698 457.438">
  <defs>
    <filter id="Rectángulo_1232" x="0" y="0" width="332" height="382" filterUnits="userSpaceOnUse">
      <feOffset dy="3" input="SourceAlpha"/>
      <feGaussianBlur stdDeviation="3" result="blur"/>
      <feFlood flood-opacity="0.161"/>
      <feComposite operator="in" in2="blur"/>
      <feComposite in="SourceGraphic"/>
    </filter>
  </defs>
  <g id="Grupo_2612" data-name="Grupo 2612" transform="translate(-554 -1299)">
    <g id="Grupo_2614" data-name="Grupo 2614">
      <g id="Grupo_2534" data-name="Grupo 2534" transform="translate(522.925 876)">
        <g transform="matrix(1, 0, 0, 1, 31.08, 423)" filter="url(#Rectángulo_1232)">
          <rect id="Rectángulo_1232-2" data-name="Rectángulo 1232" width="314" height="364" rx="6" transform="translate(9 6)" fill="#f5f7fb"/>
        </g>
        <rect id="Rectángulo_1233" data-name="Rectángulo 1233" width="269" height="16" rx="5" transform="translate(63.075 671)" fill="#d1d5db"/>
        <rect id="Rectángulo_1234" data-name="Rectángulo 1234" width="18" height="17" rx="5" transform="translate(63.075 713)" fill="#f92e4b"/>
        <rect id="Rectángulo_1235" data-name="Rectángulo 1235" width="78" height="17" rx="5" transform="translate(97.075 713)" fill="#e5e7eb"/>
        <rect id="Rectángulo_1236" data-name="Rectángulo 1236" width="18" height="16" rx="5" transform="translate(63.075 756)" fill="#f92e4b"/>
        <rect id="Rectángulo_1237" data-name="Rectángulo 1237" width="78" height="16" rx="5" transform="translate(97.075 756)" fill="#e5e7eb"/>
        <rect id="Rectángulo_1238" data-name="Rectángulo 1238" width="19" height="17" rx="5" transform="translate(197.075 713)" fill="#f92e4b"/>
        <rect id="Rectángulo_1240" data-name="Rectángulo 1240" width="19" height="16" rx="5" transform="translate(197.075 756)" fill="#f92e4b"/>
        <rect id="Rectángulo_1241" data-name="Rectángulo 1241" width="77" height="16" rx="5" transform="translate(232.075 756)" fill="#e5e7eb"/>
      </g>
      <g id="Grupo_2611" data-name="Grupo 2611">
        <g id="Grupo_2536" data-name="Grupo 2536" transform="translate(0 918)">
          <path id="Trazado_7239" data-name="Trazado 7239" d="M499.726,310.3h0a98.241,98.241,0,1,1-.005-.005Zm-16.2,121.087h0a6.608,6.608,0,0,1-1.26,1.066v.1a73.924,73.924,0,0,1-102.46-.1,11.753,11.753,0,0,1-1.163-1.066,74.167,74.167,0,1,1,104.886,0Z" transform="translate(386.012 260.876)" fill="#112546"/>
          <path id="Trazado_7240" data-name="Trazado 7240" d="M401.641,370.094l20.58-20.582a9.715,9.715,0,0,1,13.723,0L521.7,435.27a24.256,24.256,0,0,1,0,34.3h0a24.256,24.256,0,0,1-34.3,0L401.641,383.81a9.7,9.7,0,0,1,0-13.716Z" transform="translate(486.891 361.76)" fill="#6b7280"/>
          <rect id="Rectángulo_1230" data-name="Rectángulo 1230" width="29.108" height="19.404" transform="translate(874.815 718.134) rotate(-45)" fill="#374151"/>
        </g>
        <path id="Trazado_7241" data-name="Trazado 7241" d="M461.351,306.07a27.474,27.474,0,0,0-44.844-28.384,7.85,7.85,0,0,0,10.643,11.542,11.764,11.764,0,1,1,4.481,19.886h-.017a7.574,7.574,0,0,0-1.51-.151,7.9,7.9,0,0,0-1.583-.16,7.561,7.561,0,0,0-1.4.423,7.783,7.783,0,0,0-1.471.443,7.937,7.937,0,0,0-1.283,1.028,7.58,7.58,0,0,0-1.061.854,8.069,8.069,0,0,0-.815,1.487,7.387,7.387,0,0,0-.681,1.238l-2.336,7.492v.09l-1.162,3.689a7.843,7.843,0,0,0,5.159,9.8h.02a7.842,7.842,0,0,0,9.8-5.179l1.538-4.958A27.421,27.421,0,0,0,461.351,306.07Zm-47.368,41.044a7.842,7.842,0,0,0,1.244,14.45,8.14,8.14,0,0,0,6-.512,7.966,7.966,0,0,0,3.319-10.643A8.122,8.122,0,0,0,413.983,347.113Z" transform="translate(484.262 1097.824)" fill="#d1d5db"/>
        <g id="Grupo_2613" data-name="Grupo 2613" transform="translate(536.663 880.648)">
          <circle id="Elipse_393" data-name="Elipse 393" cx="74" cy="74" r="74" transform="translate(206.337 603.352)" fill="#fff5f6"/>
          <rect id="Rectángulo_1242" data-name="Rectángulo 1242" width="108" height="15" rx="5" transform="translate(214.337 666.352)" fill="#fb6d81"/>
          <rect id="Rectángulo_1239" data-name="Rectángulo 1239" width="72" height="16" rx="5" transform="translate(229.337 703.352)" fill="#fb6d81"/>
        </g>
      </g>
    </g>
  </g>
</svg>
