<svg xmlns="http://www.w3.org/2000/svg" xmlns:xlink="http://www.w3.org/1999/xlink" width="332" height="382" viewBox="0 0 332 382">
  <defs>
    <filter id="Rectángulo_1232" x="0" y="0" width="332" height="382" filterUnits="userSpaceOnUse">
      <feOffset dy="3" input="SourceAlpha"/>
      <feGaussianBlur stdDeviation="3" result="blur"/>
      <feFlood flood-opacity="0.161"/>
      <feComposite operator="in" in2="blur"/>
      <feComposite in="SourceGraphic"/>
    </filter>
  </defs>
  <g id="Grupo_2533" data-name="Grupo 2533" transform="translate(-31.075 -423)">
    <g transform="matrix(1, 0, 0, 1, 31.08, 423)" filter="url(#Rectángulo_1232)">
      <rect id="Rectángulo_1232-2" data-name="Rectángulo 1232" width="314" height="364" rx="6" transform="translate(9 6)" fill="#f5f7fb"/>
    </g>
    <rect id="Rectángulo_1233" data-name="Rectángulo 1233" width="269" height="16" rx="5" transform="translate(63.075 671)" fill="#d1d5db"/>
    <rect id="Rectángulo_1234" data-name="Rectángulo 1234" width="18" height="17" rx="5" transform="translate(63.075 713)" fill="#f92e4b"/>
    <rect id="Rectángulo_1235" data-name="Rectángulo 1235" width="78" height="17" rx="5" transform="translate(97.075 713)" fill="#e5e7eb"/>
    <rect id="Rectángulo_1236" data-name="Rectángulo 1236" width="18" height="16" rx="5" transform="translate(63.075 756)" fill="#f92e4b"/>
    <rect id="Rectángulo_1237" data-name="Rectángulo 1237" width="78" height="16" rx="5" transform="translate(97.075 756)" fill="#e5e7eb"/>
    <rect id="Rectángulo_1238" data-name="Rectángulo 1238" width="19" height="17" rx="5" transform="translate(197.075 713)" fill="#f92e4b"/>
    <rect id="Rectángulo_1239" data-name="Rectángulo 1239" width="77" height="17" rx="5" transform="translate(232.075 713)" fill="#e5e7eb"/>
    <rect id="Rectángulo_1240" data-name="Rectángulo 1240" width="19" height="16" rx="5" transform="translate(197.075 756)" fill="#f92e4b"/>
    <rect id="Rectángulo_1241" data-name="Rectángulo 1241" width="77" height="16" rx="5" transform="translate(232.075 756)" fill="#e5e7eb"/>
  </g>
</svg>
