<svg width="514" height="444" viewBox="0 0 514 444" fill="none" xmlns="http://www.w3.org/2000/svg">
<path opacity="0.1" d="M510 432.262C510 436.542 497.235 440.553 474.961 444H53.6414C34.8961 444.046 16.4745 438.357 0.249541 427.512L0 427.349C6.40138 424.654 17.9564 422.141 33.6832 419.873L34.3884 419.773C41.4408 418.776 49.3232 417.83 57.9379 416.934C58.1549 416.934 58.3773 416.896 58.5943 416.865C65.4297 416.163 72.7008 415.505 80.4078 414.891C80.6519 414.891 80.8906 414.841 81.1348 414.828C84.1076 414.582 87.1419 414.348 90.2377 414.126L91.4312 414.038C113.972 412.422 139.593 411.131 167.38 410.278H167.412C171.304 410.153 175.237 410.042 179.211 409.946C183.631 409.825 188.105 409.719 192.633 409.627C196.088 409.539 199.587 409.476 203.097 409.414H203.179C219.014 409.138 235.375 409 252.106 409C293.476 409 332.579 409.871 367.228 411.438H367.325C372.652 411.676 377.882 411.939 382.981 412.209L387.321 412.447C393.075 412.764 398.681 413.105 404.139 413.468C468.315 417.686 510 424.535 510 432.262Z" fill="#F92E4B"/>
<g opacity="0.2">
<path opacity="0.2" d="M301.56 405.709C301.543 406.402 301.476 407.092 301.359 407.772C297.579 407.061 293.776 406.418 289.952 405.844C289.952 405.664 289.952 405.477 289.952 405.291C289.987 403.364 290.456 401.482 291.31 399.84C292.429 397.745 294.129 396.434 296.003 396.504C297.877 396.575 299.502 398.008 300.507 400.175C301.267 401.876 301.63 403.786 301.56 405.709V405.709Z" fill="#3F3D56"/>
<path opacity="0.2" d="M301.873 394.725C302.005 389.754 299.512 385.627 296.303 385.507C293.095 385.387 290.386 389.32 290.253 394.291C290.12 399.261 292.614 403.388 295.823 403.508C299.031 403.628 301.74 399.696 301.873 394.725Z" fill="#3F3D56"/>
<path opacity="0.2" d="M302.169 383.721C302.302 378.75 299.808 374.623 296.6 374.503C293.391 374.383 290.682 378.316 290.55 383.286C290.417 388.257 292.91 392.384 296.119 392.504C299.328 392.624 302.036 388.692 302.169 383.721Z" fill="#3F3D56"/>
<path opacity="0.2" d="M302.46 372.717C302.593 367.746 300.099 363.619 296.891 363.499C293.682 363.379 290.973 367.311 290.841 372.282C290.708 377.253 293.201 381.38 296.41 381.5C299.618 381.62 302.327 377.687 302.46 372.717Z" fill="#3F3D56"/>
<path opacity="0.2" d="M302.751 361.712C302.884 356.741 300.39 352.615 297.182 352.495C293.973 352.375 291.264 356.307 291.131 361.278C290.999 366.249 293.492 370.376 296.701 370.496C299.909 370.616 302.618 366.683 302.751 361.712Z" fill="#3F3D56"/>
<path opacity="0.2" d="M277.169 285.359C276.404 284.134 275.715 282.845 275.105 281.503L290.457 279.105L273.932 278.636C272.457 274.497 271.711 270.046 271.74 265.555C271.769 261.063 272.572 256.626 274.1 252.514L295.895 266.944L275.931 248.407C277.945 244.553 280.609 241.232 283.756 238.651C286.904 236.069 290.467 234.284 294.224 233.405C297.981 232.527 301.851 232.574 305.592 233.545C309.332 234.516 312.864 236.388 315.965 239.046C319.067 241.704 321.672 245.09 323.618 248.993C325.564 252.896 326.808 257.231 327.275 261.729C327.741 266.226 327.418 270.789 326.327 275.133C325.235 279.476 323.399 283.507 320.932 286.972C322.122 288.879 323.133 290.933 323.947 293.098L303.799 304.539L325.164 296.935C326.509 302.188 326.726 307.755 325.795 313.132C324.863 318.509 322.813 323.527 319.829 327.73C322.931 332.709 324.786 338.621 325.182 344.79C325.578 350.958 324.499 357.133 322.068 362.61C319.637 368.087 315.953 372.644 311.436 375.759C306.919 378.875 301.753 380.424 296.527 380.229C291.302 380.034 286.228 378.103 281.886 374.657C277.544 371.211 274.11 366.388 271.975 360.741C269.841 355.094 269.093 348.851 269.816 342.724C270.54 336.598 272.706 330.836 276.067 326.097C272.361 320.146 270.453 312.894 270.65 305.506C270.847 298.117 273.137 291.022 277.153 285.359H277.169Z" fill="#F92E4B"/>
<path opacity="0.1" d="M326.348 307.586C326.158 314.978 323.861 322.077 319.829 327.73C322.931 332.709 324.786 338.621 325.182 344.789C325.578 350.958 324.499 357.133 322.068 362.61C319.637 368.087 315.953 372.644 311.436 375.759C306.919 378.875 301.753 380.424 296.527 380.229C291.302 380.034 286.228 378.103 281.886 374.657C277.544 371.211 274.11 366.388 271.975 360.741C269.841 355.094 269.093 348.851 269.816 342.724C270.54 336.598 272.706 330.835 276.067 326.097C272.498 320.357 326.446 303.89 326.348 307.586Z" fill="black"/>
</g>
<g opacity="0.2">
<path opacity="0.2" d="M218.989 405.709C218.972 406.402 218.905 407.092 218.788 407.772C215.007 407.061 211.205 406.418 207.38 405.844C207.38 405.664 207.38 405.477 207.38 405.291C207.416 403.364 207.885 401.482 208.739 399.84C209.858 397.745 211.558 396.434 213.432 396.504C215.306 396.575 216.93 398.008 217.935 400.175C218.696 401.876 219.059 403.786 218.989 405.709V405.709Z" fill="#3F3D56"/>
<path opacity="0.2" d="M219.295 394.728C219.428 389.757 216.935 385.63 213.726 385.51C210.518 385.39 207.809 389.322 207.676 394.293C207.543 399.264 210.037 403.391 213.245 403.511C216.454 403.631 219.163 399.699 219.295 394.728Z" fill="#3F3D56"/>
<path opacity="0.2" d="M219.592 383.724C219.725 378.753 217.231 374.626 214.023 374.506C210.814 374.386 208.105 378.318 207.972 383.289C207.84 388.26 210.333 392.387 213.542 392.507C216.75 392.627 219.459 388.694 219.592 383.724Z" fill="#3F3D56"/>
<path opacity="0.2" d="M219.883 372.719C220.016 367.748 217.522 363.621 214.313 363.502C211.105 363.382 208.396 367.314 208.263 372.285C208.131 377.256 210.624 381.383 213.833 381.503C217.041 381.622 219.75 377.69 219.883 372.719Z" fill="#3F3D56"/>
<path opacity="0.2" d="M220.174 361.715C220.306 356.744 217.813 352.617 214.604 352.497C211.396 352.377 208.687 356.31 208.554 361.28C208.422 366.251 210.915 370.378 214.124 370.498C217.332 370.618 220.041 366.686 220.174 361.715Z" fill="#3F3D56"/>
<path opacity="0.2" d="M194.598 285.359C193.833 284.134 193.143 282.845 192.534 281.503L207.886 279.105L191.361 278.636C189.886 274.497 189.14 270.046 189.169 265.555C189.198 261.063 190.001 256.626 191.529 252.514L213.323 266.944L193.36 248.407C195.374 244.553 198.038 241.232 201.185 238.651C204.333 236.069 207.896 234.284 211.653 233.405C215.41 232.527 219.28 232.574 223.02 233.545C226.761 234.516 230.293 236.388 233.394 239.046C236.496 241.704 239.101 245.09 241.047 248.993C242.992 252.896 244.237 257.231 244.703 261.729C245.169 266.226 244.847 270.789 243.756 275.133C242.664 279.476 240.828 283.507 238.361 286.972C239.551 288.879 240.562 290.933 241.376 293.098L221.227 304.539L242.593 296.935C243.938 302.188 244.155 307.755 243.224 313.132C242.292 318.509 240.242 323.527 237.258 327.73C240.36 332.709 242.215 338.621 242.611 344.79C243.007 350.958 241.928 357.133 239.497 362.61C237.066 368.087 233.381 372.644 228.865 375.759C224.348 378.875 219.182 380.424 213.956 380.229C208.73 380.034 203.657 378.103 199.315 374.657C194.973 371.211 191.539 366.388 189.404 360.741C187.27 355.094 186.522 348.851 187.245 342.724C187.969 336.598 190.135 330.836 193.495 326.097C189.79 320.146 187.882 312.894 188.079 305.506C188.276 298.117 190.566 291.022 194.582 285.359H194.598Z" fill="black"/>
<path opacity="0.1" d="M243.777 307.586C243.587 314.978 241.29 322.077 237.258 327.73C240.36 332.709 242.215 338.621 242.611 344.789C243.007 350.958 241.928 357.133 239.497 362.61C237.066 368.087 233.381 372.644 228.865 375.759C224.348 378.875 219.182 380.424 213.956 380.229C208.73 380.034 203.657 378.103 199.315 374.657C194.973 371.211 191.539 366.388 189.404 360.741C187.27 355.094 186.522 348.851 187.245 342.724C187.969 336.598 190.135 330.835 193.495 326.097C189.926 320.357 243.875 303.89 243.777 307.586Z" fill="black"/>
</g>
<g opacity="0.2">
<path opacity="0.2" d="M444.539 412.74C444.498 414.054 444.365 415.361 444.143 416.648C436.863 415.273 429.531 414.043 422.147 412.959C422.147 412.612 422.147 412.258 422.147 411.898C422.216 408.187 423.12 404.563 424.765 401.402C426.938 397.372 430.198 394.846 433.799 394.975C437.401 395.103 440.535 397.874 442.491 402.045C443.966 405.331 444.673 409.023 444.539 412.74V412.74Z" fill="#3F3D56"/>
<path opacity="0.2" d="M445.13 391.579C445.386 382.006 440.583 374.058 434.403 373.827C428.222 373.596 423.005 381.169 422.749 390.742C422.494 400.315 427.297 408.262 433.477 408.493C439.657 408.724 444.875 401.151 445.13 391.579Z" fill="#3F3D56"/>
<path opacity="0.2" d="M445.695 370.393C445.95 360.82 441.148 352.873 434.967 352.642C428.787 352.411 423.57 359.984 423.314 369.556C423.058 379.129 427.861 387.077 434.041 387.308C440.222 387.539 445.439 379.966 445.695 370.393Z" fill="#3F3D56"/>
<path opacity="0.2" d="M446.265 349.208C446.52 339.635 441.718 331.688 435.537 331.457C429.357 331.225 424.14 338.798 423.884 348.371C423.628 357.944 428.431 365.891 434.611 366.122C440.792 366.353 446.009 358.78 446.265 349.208Z" fill="#3F3D56"/>
<path opacity="0.2" d="M446.193 327.058C446.435 317.481 441.62 309.539 435.436 309.319C429.253 309.1 424.043 316.686 423.801 326.263C423.558 335.841 428.373 343.783 434.557 344.002C440.74 344.222 445.95 336.636 446.193 327.058Z" fill="#3F3D56"/>
<path opacity="0.2" d="M397.577 181.053C396.111 178.693 394.784 176.217 393.606 173.642L423.158 169.027L391.351 168.121C388.51 160.154 387.073 151.585 387.127 142.938C387.181 134.291 388.726 125.748 391.666 117.831L433.631 145.605L395.203 109.919C399.088 102.517 404.221 96.1414 410.28 91.1892C416.339 86.237 423.196 82.8146 430.422 81.135C437.648 79.4555 445.089 79.555 452.282 81.4273C459.474 83.2995 466.263 86.9045 472.227 92.0174C478.19 97.1303 483.199 103.642 486.942 111.146C490.685 118.65 493.082 126.985 493.984 135.633C494.885 144.281 494.271 153.056 492.18 161.411C490.09 169.766 486.567 177.522 481.832 184.196C484.121 187.869 486.068 191.823 487.639 195.991L448.847 218.031L489.975 203.376C492.567 213.476 492.989 224.182 491.203 234.524C489.417 244.866 485.479 254.518 479.746 262.606C485.716 272.192 489.286 283.573 490.048 295.448C490.809 307.322 488.731 319.21 484.051 329.752C479.371 340.295 472.278 349.067 463.583 355.064C454.889 361.062 444.943 364.044 434.884 363.669C424.824 363.293 415.057 359.576 406.699 352.942C398.341 346.309 391.729 337.026 387.62 326.155C383.51 315.285 382.069 303.265 383.461 291.472C384.853 279.678 389.022 268.585 395.491 259.463C388.36 248.006 384.69 234.048 385.068 219.828C385.446 205.607 389.852 191.949 397.577 181.046V181.053Z" fill="black"/>
<path opacity="0.1" d="M492.262 223.835C491.906 238.058 487.503 251.723 479.768 262.619C485.738 272.205 489.308 283.586 490.069 295.46C490.831 307.335 488.753 319.223 484.073 329.765C479.393 340.308 472.3 349.08 463.605 355.077C454.91 361.075 444.965 364.057 434.905 363.681C424.846 363.306 415.079 359.589 406.72 352.955C398.362 346.321 391.751 337.039 387.641 326.168C383.532 315.298 382.091 303.278 383.483 291.484C384.875 279.69 389.043 268.598 395.512 259.475C388.592 248.414 492.452 216.719 492.262 223.835Z" fill="black"/>
</g>
<path d="M18 414L23.676 413.981H31.6786L41.7968 218.499L142 19.6395L137.644 14.0797V0L29.2762 213.892L18 414Z" fill="#F1C0C0"/>
<path opacity="0.1" d="M24 414H31.4143L41.5568 218.47L142 19.5612L137.634 14L34.0286 215.49L24 414Z" fill="black"/>
<path d="M1 414.918L261.49 438.98L261.713 439L513.81 420.285L514 420.272V407.422L236.22 401.269L4.46886 401H2.77514L2.59057 402.442L1 414.918Z" fill="#F1C0C0"/>
<path opacity="0.1" d="M1 414.918L261.49 438.98L261.713 439L513.81 420.285L514 420.036V407.69H513.777L261.49 417.86L4.46886 401H4.43085L3.97485 401.36L2.59057 402.442L1 414.918Z" fill="black"/>
<path opacity="0.1" d="M1 415.974L262 439V418.79L3.98068 403L2.59368 404.035L1 415.974Z" fill="black"/>
<path d="M138 13.6608L252.743 159.698L249.196 416.579L258.943 417.974L259.105 418H268.852L270.018 170.728L484.876 255.832L488.499 407.362L496.342 408.404L499 408.758L492.849 245.323L268.245 151.819L145.089 0H138V13.6608Z" fill="#F1C0C0"/>
<path opacity="0.1" d="M269 166L269.887 170.739L485.494 256.052L489.13 407.955L497 409L490.828 252.893L269 166Z" fill="black"/>
<path opacity="0.1" d="M138 13.6617L253.114 159.708L249.555 416.604L259.334 418L262 151.301L138 0V13.6617Z" fill="black"/>
<path d="M270 268.849L348.743 287.432L348.77 287.439L486.686 320L493 316.967L492.978 316.434L492.566 305.879L270.081 252L270 268.849Z" fill="#F1C0C0"/>
<path opacity="0.1" d="M349 288L486.696 320L493 317.019L492.978 316.496L349 288Z" fill="black"/>
<path d="M354 204L356.127 342.794L357.225 414L366.907 413.615L373 413.371L371.106 206.008L366.907 204.353L365.987 204H354Z" fill="#F1C0C0"/>
<path opacity="0.1" d="M354 204V204.032L356.069 342.805L357.183 414L367 413.615V204H354Z" fill="black"/>
<path d="M201.646 239.552C202.203 239.906 202.735 240.311 203.238 240.763C203.832 241.372 204.366 242.057 204.829 242.806C207.106 246.252 209.207 250.257 208.984 254.604C208.988 255.236 208.886 255.863 208.683 256.449C208.48 257.036 208.18 257.569 207.801 258.019C206.861 258.957 205.514 259 204.283 259C202.946 259 201.54 259 200.383 258.193C199.227 257.386 198.261 255.815 196.892 255.852C196.699 255.889 196.502 255.889 196.309 255.852C195.836 255.672 195.741 254.945 195.433 254.486C194.903 253.66 193.783 253.865 192.95 254.225C192.117 254.585 191.194 255.125 190.372 254.709C189.894 254.414 189.504 253.958 189.252 253.399C187.284 249.673 186.865 245.196 186.493 240.868C186.265 238.236 184.525 229.257 189.326 231.3C191.449 232.194 193.433 233.982 195.364 235.292L201.646 239.552Z" fill="#3F3D56"/>
<path d="M196.978 240.643C197.407 241.031 197.927 241.228 198.456 241.201C198.984 241.175 199.49 240.926 199.894 240.495C200.685 239.596 201.189 238.364 201.312 237.031C201.843 236.824 202.114 237.7 202.454 238.235C203.049 239.144 204.26 239.131 204.802 240.101C205.179 240.77 205.094 241.699 205.359 242.455C205.705 243.431 206.56 243.94 207.144 244.729C207.696 245.591 208.094 246.592 208.313 247.665L209.184 250.955C209.6 252.323 209.868 253.756 209.98 255.215C210.035 255.944 209.974 256.68 209.801 257.379C209.628 258.079 209.346 258.728 208.971 259.288C207.803 260.873 205.885 261.04 204.191 260.993C203.625 261.009 203.06 260.925 202.512 260.746C201.009 260.157 200.048 258.251 199.649 256.332C199.251 254.413 199.293 252.4 199.06 250.433C198.807 248.502 198.361 246.619 197.732 244.829C197.264 243.438 195.979 241.365 196 239.887C196.383 239.887 196.659 240.328 196.978 240.643Z" fill="#3F3D56"/>
<path d="M198.402 234.337C198.148 233.419 198 232.463 197.962 231.498C197.962 229.557 198.706 227.733 199.455 226L193.252 227.003C192.504 227.125 191.668 227.306 191.245 228.05C191.084 228.419 191 228.828 191 229.244C191 229.659 191.084 230.068 191.245 230.437C191.556 231.175 191.803 231.948 191.983 232.746C191.997 233.444 192.064 234.139 192.183 234.822C192.376 235.324 192.647 235.778 192.981 236.161C194.755 238.502 196.085 241.264 197.409 244C197.371 243.922 201.147 240.436 200.996 239.298C200.909 238.651 199.818 237.875 199.471 237.254C198.991 236.353 198.631 235.369 198.402 234.337V234.337Z" fill="#BE6F72"/>
<path d="M252 209V215.355L160.195 236.581L155.432 240H139V236.419L229.2 210.587L252 209Z" fill="#F1C0C0"/>
<path opacity="0.1" d="M252 216L160.195 236.67L155.432 240H139L229.869 217.552L252 216Z" fill="black"/>
<path d="M178.058 389.074C177.05 387.6 175.66 386.582 174.112 386.185C172.565 385.788 170.951 386.035 169.535 386.886C169.232 387.058 168.964 387.31 168.752 387.624C168.216 388.53 168.559 389.779 168.608 390.899C168.731 393.631 166.93 395.851 165.311 397.761C164.443 398.784 163.558 399.878 163.167 401.27C162.776 402.662 163.065 404.429 164.116 405.154C164.574 405.431 165.073 405.599 165.584 405.646C167.298 406.05 169.055 406.109 170.784 405.821C172.494 405.426 174.171 404.254 174.911 402.351C175.054 401.835 175.29 401.364 175.603 400.972C176.546 400.072 177.993 401.127 179.065 400.486C179.95 399.956 179.987 399.121 179.998 398.02C180.03 394.978 179.655 391.534 178.058 389.074Z" fill="#F92E4B"/>
<path d="M191.172 388.627C191.807 390.696 191.894 392.95 191.977 395.159C192.023 396.436 192.054 397.802 191.497 398.881C190.94 399.96 189.851 400.528 188.808 400.796C186.656 401.345 184.164 400.828 182.776 398.715C181.713 397.1 181.491 394.884 181.687 392.79C181.852 391.072 182.203 389.061 181.207 387.842C180.949 387.516 180.613 387.286 180.376 386.935C179.86 386.156 179.943 384.982 180.221 384.024C180.584 383.108 180.856 382.141 181.031 381.144C181.073 380.672 188.019 381.476 188.659 381.866C189.531 382.396 189.397 383.283 189.66 384.356C190.026 385.85 190.728 387.197 191.172 388.627Z" fill="#F92E4B"/>
<path d="M192.458 295.995C193.901 297.099 194.458 299.268 194.682 301.282C195.299 306.802 194.218 312.379 194.136 317.95C194.059 325.754 195.971 333.701 194.338 341.26C193.36 345.779 194.19 350.943 193.272 355.507C192.999 356.862 192.497 358.14 192.234 359.496C191.688 362.433 192.262 365.506 193.032 368.379C193.278 369.153 193.434 369.963 193.496 370.786C193.459 372.054 193.187 373.297 192.699 374.427L189.421 383.587C189.055 384.614 187.613 384.781 186.689 384.917C184.952 385.162 183.013 385.337 181.631 384.065C180.248 382.793 179.915 380.663 179.702 378.675C179.293 374.858 179.111 371.012 179.156 367.165C179.216 366.161 179.14 365.152 178.932 364.176C178.631 363.072 177.97 362.117 177.79 360.949C177.561 359.438 178.211 357.953 178.451 356.43C178.616 355.038 178.598 353.625 178.396 352.24C178.183 350.175 177.938 348.109 177.659 346.056C177.266 343.184 177.828 340.35 178.205 337.471C178.56 334.766 178.107 332.009 177.659 329.324C177.698 331.504 177.468 333.678 176.976 335.779C176.686 336.806 176.271 337.787 176.02 338.833C174.9 343.526 177.287 348.451 176.949 353.312C176.79 355.584 176.036 357.831 176.249 360.071C176.397 361.71 177.042 363.214 177.484 364.776C177.927 366.339 178.156 368.127 177.484 369.586C175.709 373.549 177.036 378.939 178.626 383.006C178.949 383.727 179.23 384.474 179.467 385.24C179.937 387.073 179.544 389.042 179.669 390.953C179.212 391.041 178.743 391.005 178.299 390.847C177.855 390.69 177.448 390.414 177.107 390.043C176.867 389.746 176.67 389.397 176.435 389.087C175.779 388.348 175.002 387.775 174.152 387.402C173.652 387.072 173.084 386.918 172.513 386.957C171.912 387.155 171.372 387.551 170.956 388.099C170.415 388.661 169.842 389.176 169.24 389.642C168.984 389.875 168.684 390.032 168.366 390.101C168.206 390.13 168.043 390.099 167.898 390.012C167.754 389.925 167.637 389.787 167.563 389.616C167.529 389.509 167.509 389.396 167.503 389.281C167.3 387.332 167.193 385.37 167.181 383.406C167.181 380.03 163.761 377.706 163.329 374.369C162.985 371.677 163.624 368.934 163.411 366.222C163.307 364.828 162.98 363.46 163.001 362.065C163.001 361.162 163.176 360.277 163.236 359.38C163.286 358.384 163.274 357.385 163.198 356.391L163.029 353.273C162.865 350.194 162.685 347.05 161.658 344.236C160.44 340.949 159.718 337.436 159.527 333.856C159.418 331.596 159.489 329.337 159.27 327.071C159.073 325.025 158.636 322.991 158.762 320.939C158.866 319.351 159.308 317.814 159.412 316.226C159.625 313.173 158.642 310.203 157.872 307.279C157.101 304.355 156.533 301.114 157.544 298.293C157.688 297.83 157.929 297.418 158.243 297.093C158.631 296.79 159.072 296.596 159.532 296.525C168.906 294.198 178.513 293.474 188.061 294.375C189.617 294.479 191.128 295.036 192.458 295.995Z" fill="#3F3D56"/>
<path d="M162 227C166.971 227 171 222.523 171 217C171 211.477 166.971 207 162 207C157.029 207 153 211.477 153 217C153 222.523 157.029 227 162 227Z" fill="#BE6F72"/>
<path d="M160.364 230.545C160.489 231.16 160.489 231.803 160.364 232.418C160.227 232.848 160.034 233.247 159.792 233.6C158.948 234.944 158.014 236.198 157 237.348C157.517 238.772 158.447 239.905 159.607 240.525C160.759 241.13 161.968 241.556 163.205 241.794C163.823 241.995 164.466 242.049 165.1 241.955C165.684 241.774 166.237 241.465 166.733 241.042L171.577 237.462C172.308 236.974 172.985 236.371 173.591 235.669C174.48 234.542 174.982 233.037 174.995 231.465C175.018 231.183 174.956 230.901 174.821 230.672C174.636 230.473 174.403 230.353 174.157 230.33C172.453 229.866 171.109 228.16 170.347 226.226C169.658 224.243 169.212 222.145 169.024 220L163.859 223.358C163.091 223.862 162.329 224.366 161.534 224.802C161.028 225.084 160.005 225.319 159.645 225.89C158.96 226.945 160.184 229.275 160.364 230.545Z" fill="#BE6F72"/>
<path d="M156.787 235.47C156.062 236.173 155.495 237.077 155.139 238.101C154.806 239.369 155.139 240.707 155.439 241.962C156.848 247.312 157.925 252.776 158.661 258.311C159.112 262.114 159.278 265.975 159.498 269.823C159.949 277.671 160.604 290.185 161.479 297.982C164.701 298.153 167.841 297.044 171.036 296.638C177.006 295.89 183.153 297.602 189 296.004C187.583 289.392 186.165 278.102 184.748 271.497C184.121 268.894 183.686 266.232 183.449 263.541C183.325 261.607 183.4 259.667 183.422 257.721C183.47 253.918 183.293 250.114 183.116 246.31C182.912 241.873 182.708 237.435 181.816 233.093C181.754 232.54 181.535 232.028 181.194 231.641C180.657 231.179 179.959 231.343 179.32 231.445C177.364 231.738 175.384 231.184 173.747 229.885C173.038 229.315 172.088 228.617 171.428 229.251C171.146 229.634 170.96 230.101 170.891 230.602C170.599 231.498 170.148 232.311 169.568 232.986C168.989 233.66 168.294 234.181 167.53 234.513C166 235.167 164.398 235.556 162.773 235.667C162.276 235.793 161.758 235.724 161.297 235.47C160.534 234.919 160.481 232.935 159.52 232.801C158.677 232.687 157.356 234.83 156.787 235.47Z" fill="#3F3D56"/>
<path d="M169.37 250.704C167.36 248.448 166.477 245.176 165.012 242.396C164.014 240.527 162.739 238.882 161.248 237.54C160.498 236.959 159.81 236.274 159.199 235.501C158.682 234.754 158.29 233.757 157.505 233.469C157.181 233.386 156.845 233.397 156.525 233.501C156.205 233.604 155.911 233.797 155.669 234.063C155.189 234.6 154.734 235.168 154.307 235.763C151.998 238.569 147.939 238.958 146.109 242.205C145.615 242.893 145.279 243.718 145.134 244.601C144.607 249.326 145.648 254.108 148.043 257.957C148.506 258.849 149.218 259.526 150.058 259.874C149.944 261.066 150.079 262.272 150.451 263.389C151.459 267.433 152.699 271.394 154.16 275.243C153.811 276.749 153.567 278.285 153.43 279.838C153.049 283.742 153.403 287.704 153.044 291.615C152.749 294.81 151.954 297.922 151.927 301.124C151.927 301.635 151.965 302.242 152.341 302.504C152.541 302.625 152.765 302.68 152.989 302.664L159.69 302.901C163.579 303.035 167.507 303.169 171.336 302.325C171.846 302.237 172.341 302.054 172.802 301.782C174.098 300.932 174.529 299.015 174.736 297.309C175.006 295.096 175.113 292.859 175.057 290.625C175.869 293.635 176.833 296.747 179.284 298.05C180.581 298.74 182.062 298.689 183.484 298.645C186.549 298.484 189.603 298.115 192.631 297.539C192.817 297.566 193.007 297.542 193.184 297.468C193.361 297.393 193.521 297.272 193.65 297.112C193.78 296.952 193.876 296.759 193.931 296.548C193.986 296.337 193.997 296.114 193.965 295.897L193.998 292.408C194.063 285.321 192.565 278.547 191.982 271.492C191.797 269.268 191.813 267.019 191.35 264.839C191.16 263.926 190.882 263.031 190.713 262.111C190.568 261.21 190.477 260.298 190.441 259.382L190.016 252.353C189.814 249.1 189.526 245.962 189.313 242.716C189.196 239.555 188.806 236.416 188.147 233.348C187.673 231.431 186.687 229.258 184.982 229.021C184.073 228.9 183.19 229.366 182.324 229.692C180.195 230.479 177.91 230.467 175.787 229.66C175.131 229.357 174.447 229.142 173.75 229.021C173.398 228.965 173.041 229.02 172.713 229.179C172.386 229.339 172.101 229.597 171.887 229.929C171.675 230.428 171.576 230.982 171.598 231.539C171.342 237.923 170.868 244.499 169.37 250.704Z" fill="#F92E4B"/>
<path d="M160.961 251.381C158.476 248.279 155.926 245.121 152.724 243.149C151.463 242.37 150.029 241.783 148.633 242.077C147.237 242.37 145.938 243.806 146.002 245.484C146.045 246.525 146.579 247.443 146.746 248.464C146.94 249.613 146.66 250.838 146.962 251.948C147.207 252.68 147.574 253.346 148.04 253.907L151.856 259.261C153.473 261.495 155.091 263.76 157.171 265.304C159.252 266.848 161.947 267.569 164.233 266.472C165.859 265.577 167.211 264.108 168.103 262.267C169.052 260.48 169.72 258.527 170.61 256.683C171.994 253.737 173.821 251.114 176 248.943C174.879 248.598 173.472 248.113 172.766 247.029C172.565 246.684 172.393 246.316 172.254 245.931L171.38 243.698C171.083 243.679 170.786 243.734 170.508 243.858C170.23 243.982 169.976 244.173 169.763 244.419C169.389 244.931 168.987 245.415 168.561 245.867C167.801 246.544 166.772 246.729 166.082 247.501C165.815 247.832 165.573 248.191 165.359 248.573C164.837 249.385 164.175 250.055 163.416 250.54C162.658 251.024 161.821 251.311 160.961 251.381V251.381Z" fill="#3F3D56"/>
<path d="M176.69 237.558C178.545 233.425 178.459 228.471 178.989 223.803C179.046 222.567 179.401 221.379 180.01 220.389C181.079 218.914 182.966 218.894 184.581 219.083C185.056 219.149 185.65 219.423 185.623 220.004C185.586 220.212 185.502 220.404 185.382 220.559C183.818 223.025 182.897 226.009 182.742 229.123C183.581 229.835 184.88 228.373 185.687 229.123C186.222 229.672 185.976 230.755 185.655 231.539C184.91 233.354 184.142 235.155 183.351 236.944C182.719 238.521 181.896 239.971 180.908 241.246C180.229 242.042 179.432 242.669 178.743 243.452C177.139 245.287 176.171 247.878 174.514 249.667C174.374 249.852 174.185 249.97 173.98 250C173.769 249.982 173.57 249.873 173.418 249.693C172.59 248.871 171.904 247.857 171.398 246.71C170.767 245.287 170.863 244.869 171.857 243.864C173.718 242.068 175.53 240.143 176.69 237.558Z" fill="#BE6F72"/>
<path d="M157.962 248.579C158.28 248.844 158.673 249.145 159.024 248.923C159.167 248.806 159.289 248.647 159.38 248.457C159.987 247.364 160.494 246.176 160.888 244.919C160.956 244.741 160.994 244.545 161 244.346C161 243.887 160.697 243.551 160.416 243.286C158.907 241.989 157.285 240.95 155.587 240.191C154.185 239.475 152.719 238.852 151.232 239.031C150.673 239.082 150.127 239.284 149.628 239.626C149.129 239.969 148.686 240.443 148.326 241.022C147.264 242.863 149.043 243.422 150.159 244.088C152.74 245.671 155.534 246.588 157.962 248.579Z" fill="#F92E4B"/>
<path opacity="0.1" d="M156.009 260.146C155.989 260.301 156.001 260.459 156.045 260.607C156.088 260.755 156.162 260.89 156.26 261C156.433 260.038 156.206 259.022 156.385 258.053C156.647 256.597 157.893 255.499 158 254.036C155.717 253.528 156.027 258.575 156.009 260.146Z" fill="black"/>
<path opacity="0.2" d="M252 209V215.396L229.675 217L229 210.597L252 209Z" fill="black"/>
<path d="M153.652 218.703C155.031 217.417 154.233 214.72 155.167 212.992C155.71 212.048 156.627 211.55 157.528 211.128C158.616 210.545 159.781 210.176 160.976 210.034C161.574 209.968 162.177 210.058 162.741 210.295C163.305 210.533 163.815 210.913 164.233 211.407C164.585 211.867 164.824 212.427 165.155 212.905C165.566 213.463 166.1 213.884 166.702 214.123C167.304 214.361 167.952 214.409 168.575 214.26C169.297 214.073 170.047 213.446 169.998 212.601C169.916 212.087 169.687 211.618 169.346 211.271L167.794 209.301C166.029 207.064 164.07 204.69 161.48 204.13C159.678 203.739 157.832 204.292 156.095 204.957C155.395 205.224 154.608 205.622 154.412 206.436C154.282 206.995 154.478 207.604 154.364 208.17C154.141 209.295 152.882 209.674 152.295 210.618C151.709 211.563 151.888 212.681 151.72 213.725C151.552 214.769 151.063 215.789 151.003 216.87C150.965 217.522 151.253 218.734 151.894 218.97C152.534 219.207 153.256 217.926 153.652 218.703Z" fill="#3F3D56"/>
<path d="M170 211.953C169.541 209.188 168.55 206.576 167.102 204.311C165.814 202.194 164.022 200.552 161.943 199.585C160.903 199.116 159.786 198.925 158.673 199.026C157.561 199.128 156.483 199.518 155.52 200.169C154.091 201.346 152.978 202.965 152.311 204.838C150.9 208.345 150.377 212.631 152.017 216C152.671 215.082 153.793 215.497 154.785 215.164C156.027 214.756 157.078 213.8 158.26 213.203C161.828 211.387 166.187 212.858 170 211.953Z" fill="#FED253"/>
<path opacity="0.1" d="M153.14 211.903C153.025 210.937 152.95 209.816 153.59 209.129C153.622 209.087 153.662 209.053 153.708 209.031C153.754 209.009 153.805 208.998 153.855 209C153.9 209.016 153.941 209.041 153.976 209.074C154.011 209.107 154.04 209.148 154.06 209.193C154.429 209.819 154.744 210.48 155 211.168C154.627 211.076 154.238 211.106 153.881 211.254C153.524 211.403 153.217 211.662 153 212" fill="black"/>
<path opacity="0.1" d="M165.29 208.668L165.068 206.034C165.032 205.817 165.047 205.592 165.111 205.384C165.204 205.211 165.347 205.084 165.513 205.03C165.679 204.975 165.856 204.996 166.01 205.089C166.313 205.29 166.563 205.589 166.731 205.952C167.244 206.895 167.669 207.902 168 208.956C167.008 208.727 165.987 208.742 165 209" fill="black"/>
<path opacity="0.1" d="M170 302V306.733L166.326 307H147V302H170Z" fill="black"/>
<path d="M170 301.495V307H146.754L85 215.33V211H97.9459L170 301.495Z" fill="#F1C0C0"/>
<path opacity="0.1" d="M170 301.495V307H146.754L85 215.33V211H97.9459L170 301.495Z" fill="black"/>
<path opacity="0.1" d="M170 301.495V307H146.754L85 215.33V211L147.089 301.495H170Z" fill="black"/>
<path d="M92.5249 394.349C92.5661 394.61 92.5611 394.878 92.5103 395.136C92.4595 395.395 92.364 395.638 92.2297 395.851C92.0954 396.064 91.9252 396.242 91.7298 396.374C91.5344 396.506 91.3179 396.589 91.094 396.618C89.5757 397.222 87.9645 397.82 86.8886 399.189C85.8127 400.558 85.5997 403.097 86.8886 404.209C87.5475 404.676 88.3039 404.919 89.0732 404.909C91.5473 405.109 94.1251 405.07 96.3698 403.836C97.9755 402.962 99.4883 401.471 101.252 401.606C102.164 401.67 103.137 402.171 103.95 401.683C104.764 401.194 104.994 399.832 104.999 398.694C105.02 396.319 104.715 393.956 104.098 391.695C104.016 391.386 100.542 391.149 100.127 391.052L95.9165 390.409C95.1191 390.287 93.3987 389.58 92.7707 390.364C92.1426 391.149 92.5249 393.417 92.5249 394.349Z" fill="#F92E4B"/>
<path d="M118.147 377.639C118.326 378.808 118.617 379.949 119.014 381.041C119.601 382.806 120.353 384.682 121.79 385.539C123.096 386.311 124.699 386.032 126.027 385.299C126.581 385.027 127.066 384.591 127.437 384.033C127.865 383.15 128.057 382.133 127.986 381.118C127.986 378.606 127.859 376.01 126.888 373.777C126.054 371.83 124.6 370.155 124.578 368L119.579 369.142C119.311 369.173 119.056 369.292 118.844 369.486C118.685 369.684 118.575 369.928 118.525 370.194C117.992 372.623 117.863 375.152 118.147 377.639V377.639Z" fill="#F92E4B"/>
<path d="M59.0895 317.529C58.8903 319.581 58.9741 321.781 59.8549 323.553C60.7356 325.325 62.5914 326.498 64.1956 325.791C64.2778 325.765 64.3549 325.72 64.4225 325.658C64.49 325.595 64.5465 325.517 64.5888 325.427C64.6315 325.212 64.6072 324.985 64.5206 324.79C63.8124 322.492 63.8707 319.948 64.6831 317.701C64.788 317.408 65.0134 317.063 65.2598 317.178C65.3629 317.242 65.4458 317.345 65.4957 317.471C65.7495 318.005 65.8765 318.614 65.8627 319.231C65.7887 319.789 65.7746 320.357 65.8207 320.92C65.9203 321.468 66.4027 321.985 66.822 321.749C66.9433 321.658 67.0481 321.539 67.1301 321.397C67.2121 321.256 67.2696 321.096 67.2991 320.927C68.4682 316.815 67.9387 312.32 67.404 308.017C67.4084 307.918 67.395 307.819 67.3646 307.728C67.3342 307.636 67.2876 307.553 67.2281 307.486C67.1686 307.418 67.0977 307.367 67.0203 307.337C66.9428 307.307 66.8609 307.297 66.7801 307.309C64.3057 307.01 62.9531 306.289 61.5377 309.088C60.3214 311.447 59.0895 314.692 59.0895 317.529Z" fill="#F92E4B"/>
<path d="M88.5664 305.847C87.8102 309.591 87.0486 313.379 87 317.226C87.0133 319.622 87.1649 322.014 87.4537 324.385L88.0209 329.956C88.2153 331.834 88.4044 333.706 88.6798 335.565C88.8556 336.522 88.9515 337.498 88.9661 338.479C88.9131 339.445 88.7847 340.403 88.5826 341.341C88.2429 343.311 88.0531 345.313 88.0155 347.323C87.956 350.539 88.2909 353.756 88.5016 356.972C88.9221 363.381 88.8589 369.822 88.3125 376.217C88.0944 377.944 88.4091 379.706 89.1984 381.177C89.5186 381.641 89.7823 382.156 89.9816 382.708C90.3867 384.181 89.4414 385.654 89.1984 387.165C89.0429 388.344 89.2866 389.548 89.8761 390.513C90.4655 391.478 91.3524 392.125 92.342 392.311C96.6631 392.922 101.103 392.646 104.997 395C105.408 393.572 104.511 391.951 104.922 390.497C105.181 389.597 105.894 389.011 106.38 388.252C107.033 387.096 107.359 385.721 107.309 384.329C107.328 382.511 107.057 380.706 106.51 379.009C106.051 377.594 105.392 376.198 105.43 374.68C105.43 373.934 105.651 373.149 105.397 372.461C105.223 372.066 104.986 371.714 104.7 371.425C103.086 369.319 102.094 366.643 101.875 363.803C101.665 360.985 101.741 358.147 102.102 355.351C102.367 352.688 102.723 349.877 104.144 347.799C103.485 341.499 103.872 335.107 105.284 328.984C105.424 328.418 105.646 327.762 106.132 327.627C106.325 327.604 106.52 327.636 106.7 327.721C106.881 327.806 107.042 327.941 107.169 328.116C108.017 329.062 108.422 330.432 108.789 331.744C109.194 333.165 109.605 334.684 109.297 336.137C109.167 336.78 108.908 337.347 108.757 337.964C108.428 339.205 108.486 340.545 108.919 341.74C109.13 342.176 109.262 342.661 109.308 343.161C109.258 343.592 109.148 344.009 108.984 344.396C108.783 345.158 108.72 345.96 108.797 346.753C108.874 347.545 109.091 348.309 109.432 348.996C110.12 350.362 110.97 351.603 111.954 352.681C111.484 355.15 111.606 357.727 112.306 360.117C112.356 360.225 112.388 360.343 112.4 360.466C112.412 360.588 112.404 360.712 112.376 360.831C112.279 361.076 112.03 361.166 111.836 361.339C111.295 361.867 111.63 362.864 111.992 363.552C112.984 365.441 114.079 367.25 115.271 368.968C116.351 370.505 116.254 373.471 117.864 374.024C118.54 374.198 119.24 374.198 119.916 374.024C121.504 373.735 123.276 373.188 124.054 371.515C124.372 370.827 124.502 369.991 124.999 369.476C125.496 368.962 126.138 368.872 126.414 368.254C126.689 367.637 126.382 366.826 126.473 366.112C126.565 365.398 127.089 364.826 127.257 364.073C127.656 362.336 125.955 360.908 125.723 359.133C125.388 356.56 128.11 354.63 127.997 352.057C127.759 346.468 127.608 340.852 127.365 335.262C127.06 330.255 127.016 325.231 127.235 320.217C127.424 317.097 127.775 313.83 126.814 310.929C125.431 306.838 121.618 304.541 117.928 304.104C114.239 303.667 110.561 304.709 106.904 305.39C100.835 306.504 94.6692 306.658 88.5664 305.847V305.847Z" fill="#3F3D56"/>
<path d="M99.5 245C104.194 245 108 240.299 108 234.5C108 228.701 104.194 224 99.5 224C94.8056 224 91 228.701 91 234.5C91 240.299 94.8056 245 99.5 245Z" fill="#FBBEBE"/>
<path d="M96.5212 246.864C96.2336 247.727 95.7501 248.458 95.1343 248.96C94.5185 249.462 93.7991 249.712 93.071 249.677C92.7645 251.311 93.499 252.959 94.3391 254.246C96.0835 256.862 98.3378 258.832 100.87 259.951C103.401 261.07 106.119 261.299 108.742 260.613C109.763 260.378 110.731 259.857 111.579 259.088C112.723 257.857 113.49 256.144 113.746 254.253C113.989 252.375 114.058 250.466 113.952 248.567C113.981 248.192 113.898 247.816 113.719 247.518C113.508 247.307 113.247 247.196 112.979 247.205C111.194 247 109.329 246.912 107.759 245.781C106.19 244.651 105.075 242.097 105.831 240C105.709 240.327 102.624 240.483 102.217 240.552C100.944 240.783 99.6702 241.042 98.4021 241.342C97.7928 241.385 97.1906 241.531 96.611 241.777C95.8449 242.288 96.1302 242.036 96.3098 242.962C96.5793 244.379 96.9755 245.393 96.5212 246.864Z" fill="#FBBEBE"/>
<path d="M102.739 252.51C101.572 252.526 100.407 252.373 99.2705 252.053C98.1232 251.734 97.1119 250.931 96.4241 249.792C96.0236 249.071 95.7639 248.163 95.1253 247.757C94.0809 247.113 92.8903 248.201 92.0569 249.2C91.2981 250.184 90.4188 251.027 89.4486 251.699C88.2905 252.427 86.9376 252.684 85.8445 253.541C84.9905 254.309 84.2576 255.251 83.6798 256.324L76.0117 268.755C72.9325 273.754 70.2538 279.119 67.5101 284.395C65.1344 288.961 63.8898 294.217 62.0985 299.145C61.9567 299.446 61.898 299.793 61.9308 300.137C61.9957 300.472 62.3367 300.742 62.5748 300.549C61.7684 301.502 62.4774 303.126 62.288 304.465C62.0726 305.403 61.6236 306.241 61 306.868C62.1911 306.683 63.4003 306.751 64.5716 307.068C65.7822 307.476 66.9245 308.13 67.9484 309C68.6032 308.878 68.5437 307.493 69.0308 306.977C69.323 306.675 69.7559 306.713 70.1401 306.623C71.585 306.288 72.1586 304.221 73.268 303.055C74.1934 302.082 75.503 301.766 76.4825 300.852C78.0735 299.364 78.4144 296.717 79.2478 294.52C79.9567 292.659 81.0715 291.035 81.6938 289.129C82.0997 287.892 82.2945 286.552 82.8735 285.412C83.7989 283.57 85.5414 282.591 87.2028 281.709C88.2526 281.148 89.3674 280.568 90.4984 280.659C90.4389 283.654 90.1196 286.604 90.6662 289.528C90.8556 290.559 91.1207 291.564 91.348 292.588C92.3816 297.2 92.6252 302.005 92.6739 306.758C95.1602 306.081 97.6997 305.719 100.25 305.676C102.258 305.605 104.26 305.915 106.268 305.87C108.649 305.818 111.003 305.271 113.384 305.077C115.765 304.884 118.254 305.077 120.359 306.366C120.188 302.283 120.284 298.192 120.646 294.127L121.22 287.725C121.349 285.864 121.59 284.018 121.94 282.198C122.253 280.729 122.708 279.312 123.054 277.85C124.272 272.697 124.05 267.196 123.817 261.831C123.698 259.074 122.805 256.362 121.756 253.908C121.376 252.997 120.942 252.118 120.457 251.28C119.188 249.2 117.497 247.536 115.542 246.443C113.587 245.35 111.432 244.865 109.277 245.032C109.001 245.042 108.73 245.112 108.476 245.238C108.019 245.586 107.662 246.092 107.453 246.688C106.333 249.083 104.709 251.09 102.739 252.51Z" fill="#3F3D56"/>
<path d="M91.7408 238.542C91.9924 237.911 92.6686 237.678 93.0823 237.173C93.8759 236.214 93.5182 234.682 93.6412 233.389C93.8424 231.497 95.2341 229.913 96.8271 229.239C98.4515 228.65 100.18 228.527 101.857 228.879C102.665 228.946 103.445 229.238 104.127 229.731C104.417 229.97 104.686 230.279 104.959 230.5C105.459 230.841 106.056 230.947 106.624 230.798C107.192 230.648 107.686 230.254 108 229.699C106.021 227.012 103.83 224.174 100.823 223.348C99.7918 223.11 98.7406 222.998 97.6878 223.013C96.2961 222.982 94.8596 222.957 93.5741 223.556C91.8247 224.369 90.595 226.243 89.9634 228.261C89.4111 230.307 89.1157 232.43 89.0859 234.568C88.9714 235.995 88.9714 237.43 89.0859 238.857C89.302 240.806 89.9435 242.663 90.9527 244.262C91.0892 244.511 91.2822 244.713 91.5117 244.849C94.0604 246.111 91.534 239.065 91.7408 238.542Z" fill="#3F3D56"/>
<path d="M108 227.617C107.701 224.647 105.875 222.194 103.935 220.221C102.372 218.51 100.509 217.209 98.4744 216.406C96.4258 215.706 94.0675 215.858 92.3123 217.276C90.8995 218.418 90.0029 220.233 89.3128 222.062C88.4062 224.22 87.9572 226.598 88.0032 228.998C88.1391 231.381 89.1389 233.796 90.9212 235C91.5624 233.903 92.6764 233.335 93.7469 232.888C98.4125 230.834 103.171 229.074 108 227.617V227.617Z" fill="#FED253"/>
<path opacity="0.1" d="M91.5624 226C91.7279 226 91.8365 226.273 91.9192 226.497C92.3403 227.547 92.702 228.654 93 229.807C92.395 230.014 91.3556 230.245 91.0556 229.393C90.8953 228.963 91.0867 225.959 91.5624 226Z" fill="black"/>
<path opacity="0.1" d="M103.351 224.963C103.189 225.101 103.001 224.819 103.001 224.615V222.287C102.996 222.222 103.013 222.158 103.048 222.101C103.076 222.072 103.11 222.049 103.148 222.033C103.186 222.016 103.228 222.007 103.27 222.005C103.816 221.951 104.268 222.365 104.618 222.761C105.15 223.403 105.613 224.088 106 224.807L103.149 224.729" fill="black"/>
<path d="M132.133 266.222C132.625 265.67 133.151 265.162 133.705 264.701C135.187 263.533 136.979 263.073 138.642 262.328C140.305 261.583 141.995 260.378 142.642 258.422C142.966 257.198 143.072 255.909 142.952 254.635C142.968 254.102 142.888 253.571 142.717 253.077C142.513 252.64 142.224 252.267 141.872 251.991C139.615 250.022 136.588 249.864 133.786 250.066C127.607 250.518 121.551 252.302 115.918 255.329C115.62 255.446 115.359 255.666 115.169 255.961C115.059 256.234 115.01 256.536 115.024 256.838C114.925 258.699 115.13 260.565 115.629 262.334C116.367 264.581 117.886 266.392 118.522 268.683C118.811 269.711 118.907 270.803 119.159 271.838C119.365 272.907 119.9 273.847 120.661 274.476C122.774 275.965 124.769 273.965 126.234 272.412L132.133 266.222Z" fill="#3F3D56"/>
<path d="M104.353 274.959L101.615 267.787C101.213 266.793 100.867 265.768 100.578 264.719C100.265 263.467 100.114 262.17 99.8219 260.912C98.8606 256.723 96.4357 253.234 95.253 249.128C95.1782 248.758 95.0257 248.416 94.8101 248.136C94.6375 247.989 94.4401 247.89 94.232 247.845C94.0239 247.8 93.8101 247.811 93.6058 247.877C91.9532 248.22 90.6624 249.731 89.1502 250.587C88.4482 250.977 87.6921 251.236 86.99 251.683C86.639 251.883 86.3281 252.171 86.0783 252.528C85.8285 252.885 85.6458 253.303 85.5426 253.752C85.3752 254.745 85.7856 255.698 86.1313 256.664C87.6002 260.646 87.9351 265.095 87.9999 269.453C88.0485 272.385 87.9243 275.53 86.4823 277.884C83.7118 282.424 85.4832 289.091 86.5201 294.584C86.6443 295.233 86.7901 295.933 86.8765 296.621C86.9679 297.481 87.0094 298.348 87.0008 299.215C87.0008 302.127 86.8658 305.129 85.8504 307.769C86.8528 308.409 87.9576 308.785 89.0908 308.871C92.2268 309.351 95.3754 309.689 98.5366 309.883C99.527 309.995 100.526 309.934 101.502 309.702C102.66 309.326 103.682 308.496 104.405 307.346C105.127 306.195 105.51 304.787 105.493 303.346C105.665 305.142 105.984 307.094 107.07 308.34C108.155 309.585 109.738 309.773 111.212 309.87C115.373 310.135 119.545 309.994 123.687 309.449C123.952 309.434 124.212 309.362 124.454 309.235C125.254 308.755 125.297 307.432 125.232 306.368C125.113 304.377 124.989 302.386 124.789 300.408C124.62 299.147 124.533 297.872 124.53 296.595C124.612 295.281 124.793 293.978 125.07 292.703C125.794 288.657 126.366 284.525 126.123 280.381C126.027 279.372 125.993 278.355 126.02 277.34C126.161 275.05 127.165 272.871 126.976 270.595C126.436 263.902 125.999 257.034 124.443 250.575C124.163 249.42 123.806 248.181 122.969 247.52C121.889 246.651 120.371 247.105 119.135 246.554C118.554 246.229 118.003 245.836 117.487 245.38C116.368 244.539 115.085 244.065 113.766 244.005C112.773 243.959 111.666 244.225 111.066 245.185C110.788 245.726 110.605 246.328 110.526 246.956C109.743 250.912 108.825 254.822 107.907 258.733L107.026 262.482L104.666 272.547C104.434 273.617 104.591 273.948 104.353 274.959Z" fill="#F92E4B"/>
<path d="M118.384 236L171 301.45V307H147.54L108 245.916" fill="#F1C0C0"/>
<path opacity="0.1" d="M118.384 236L171 301.45V307H147.54L108 245.916" fill="black"/>
<path opacity="0.1" d="M108.838 245L109.006 245.071L147.877 301.445H171V307H147.54L108 245.864L108.838 245Z" fill="black"/>
<path d="M114.524 246.844C112.691 247.885 110.653 249.219 110.103 251.724C109.995 252.164 109.971 252.631 110.035 253.085C110.169 253.619 110.425 254.088 110.768 254.429C111.111 254.771 111.526 254.969 111.958 254.998C112.82 255.025 113.678 254.821 114.477 254.399L125.293 249.757C125.587 249.635 125.922 249.451 125.995 249.077C126.014 248.841 125.977 248.604 125.89 248.396C125.555 247.334 125.225 245.163 124.523 244.421C123.947 243.822 122.805 244.033 122.109 244.047C119.427 244.074 116.907 245.483 114.524 246.844Z" fill="#F92E4B"/>
<path d="M124.42 250.008C126.328 250.001 128.226 250.333 130.043 250.989C131.869 251.656 133.485 252.898 134.701 254.568C135.055 255.035 135.307 255.589 135.436 256.185C135.546 256.803 137.335 257.173 136.94 257.593C138.141 257.377 137.856 258.012 139.074 258C140.292 257.987 141.609 257.636 142.338 256.543C142.845 255.646 143.071 254.584 142.98 253.525C142.996 252.793 142.873 252.065 142.618 251.39C142.07 250.094 140.808 249.397 139.645 248.798L129.846 243.756C129.277 243.416 128.667 243.172 128.035 243.034C127.503 242.977 126.967 242.992 126.439 243.077L122 243.651C122.971 244.357 123.761 245.336 124.293 246.491C124.825 247.646 125.08 248.936 125.034 250.236" fill="#3F3D56"/>
</svg>
