<svg xmlns="http://www.w3.org/2000/svg" width="1629.915" height="402.513" viewBox="0 0 1629.915 402.513">
  <g id="Grupo_2637" data-name="Grupo 2637" transform="translate(0 -112.79)">
    <path id="Trazado_7390" data-name="Trazado 7390" d="M1129.411,556.555c-23.336,15.892-59.184,19.274-112.269,19.95-38.211.676-59.853-11.5-57.148-23.332,2.029-8.792,17.922-17.245,50.385-20.626,60.528-6.087,115.986,1.352,123.424,13.187C1136.17,549.115,1134.824,552.835,1129.411,556.555Z" transform="translate(459.594 -384.232)" fill="rgba(249,46,75,0.7)"/>
    <path id="Trazado_7391" data-name="Trazado 7391" d="M367.789,455.772C339.722,472,295.763,476.4,230.162,478.427c-47,1.353-74.055-10.143-70.673-21.979,2.366-8.792,21.64-17.921,61.543-21.64,74.055-7.44,142.7-1.353,152.506,10.482C376.242,448.332,374.552,451.714,367.789,455.772Z" transform="translate(111.722 -318.764)" fill="rgba(249,46,75,0.7)"/>
    <path id="Trazado_7392" data-name="Trazado 7392" d="M512.545,636.364l-40.577,48.693A11.994,11.994,0,1,1,453.707,669.5l1.353-1.353,48.017-41.59a6.858,6.858,0,0,1,9.468.676,7.127,7.127,0,0,1,0,9.129Z" transform="translate(215.864 -338.931)" fill="rgba(249,46,75,0.7)"/>
    <path id="Trazado_7393" data-name="Trazado 7393" d="M539.831,639.2l-8.116,98.736a10.012,10.012,0,0,1-19.951-1.69v-.337l13.188-98.4a7.814,7.814,0,0,1,8.453-6.424,7.689,7.689,0,0,1,6.426,8.115Z" transform="translate(245.051 -336.022)" fill="rgba(249,46,75,0.7)"/>
    <path id="Trazado_7394" data-name="Trazado 7394" d="M574.044,635.424l26.714,69.994a11.995,11.995,0,0,1-22.319,8.792,2.533,2.533,0,0,1-.337-1.69l-16.908-73.038a6.882,6.882,0,0,1,5.073-8.116,6.661,6.661,0,0,1,7.777,4.058Z" transform="translate(268.661 -335.962)" fill="rgba(249,46,75,0.7)"/>
    <path id="Trazado_7395" data-name="Trazado 7395" d="M610.453,626.923l40.24,27.051a11.958,11.958,0,0,1-13.188,19.95,7.355,7.355,0,0,1-1.69-1.353l-34.83-33.814a7.154,7.154,0,0,1,0-10.482,6.921,6.921,0,0,1,9.469-1.352Z" transform="translate(286.694 -338.618)" fill="rgba(249,46,75,0.7)"/>
    <path id="Trazado_7396" data-name="Trazado 7396" d="M42.29,890.508c-15.555-.339-25.7-1.014-27.39-1.014A16.132,16.132,0,0,1,.021,872.587a15.7,15.7,0,0,1,16.908-14.879c1.691,0,119.367,12.172,216.416-27.727,35.843-14.54,55.794-27.727,59.514-38.209,2.7-7.777-3.381-19.274-13.526-37.533-3.382-6.087-7.1-12.511-10.821-19.613a59.646,59.646,0,0,1-2.029-50.382c21.98-54.1,114.971-89.946,143.038-99.413,155.887-53.425,273.225-32.8,277.959-31.785a16.34,16.34,0,0,1,12.85,18.6,16.082,16.082,0,0,1-18.6,12.85c-1.014-.339-114.634-19.951-262.067,30.769-64.248,21.98-112.942,54.1-124.1,81.154a27.2,27.2,0,0,0,1.014,24.008c3.382,6.424,6.764,12.85,10.145,18.6,12.174,21.3,23.332,41.59,15.893,63.569-7.1,20.966-30.433,37.872-77.436,57.146C165.715,892.2,95.041,891.861,42.29,890.508Z" transform="translate(0 -375.651)" fill="#1c3177"/>
    <path id="Trazado_7397" data-name="Trazado 7397" d="M444.121,600.344c5.748,13.526,19.613,21.979,42.607,26.037,34.829,6.086,57.146-2.706,57.146-2.706l-.676-12.848-4.734-75.067a152.6,152.6,0,0,0-60.867,6.087c-27.39,9.129-39.225,24.008-36.859,46.663A47.5,47.5,0,0,0,444.121,600.344Z" transform="translate(210.911 -382.035)" fill="#f0f6ff"/>
    <path id="Trazado_7398" data-name="Trazado 7398" d="M509.623,535.017c-6.9.438-11.222,20.735-9.661,45.337s8.416,44.19,15.312,43.752,11.222-20.735,9.661-45.336S516.519,534.58,509.623,535.017Z" transform="translate(239.26 -382.013)" fill="#c2d7ef"/>
    <path id="Trazado_7399" data-name="Trazado 7399" d="M442.93,579.174c5.748,13.526,19.613,21.979,42.607,26.037,34.829,6.085,57.146-2.7,57.146-2.7l-.676-12.85c-13.526-.676-30.772-1.69-47.341-3.382C471,583.232,453.412,580.864,442.93,579.174Z" transform="translate(212.102 -360.864)" fill="#c2d7ef"/>
    <path id="Trazado_7400" data-name="Trazado 7400" d="M546.189,562.025l-30.772,3.042A7.543,7.543,0,0,1,507.3,558.3l-.337-2.028a7.54,7.54,0,0,1,6.763-8.116l30.772-3.044a8.375,8.375,0,0,1,9.129,7.439,8.077,8.077,0,0,1-7.439,9.469Z" transform="translate(242.753 -377.191)" fill="#87aacc"/>
    <path id="Trazado_7401" data-name="Trazado 7401" d="M548.247,587.633l-30.772,3.043a7.542,7.542,0,0,1-8.116-6.763l-.337-2.029a7.54,7.54,0,0,1,6.763-8.114l30.772-3.044a8.375,8.375,0,0,1,9.129,7.439,8.073,8.073,0,0,1-7.439,9.468Z" transform="translate(243.738 -364.928)" fill="#87aacc"/>
    <path id="Trazado_7402" data-name="Trazado 7402" d="M1317.094,882.683c-23-.676-225.208-8.115-283.709-80.477-39.562-49.03-16.23-82.167,4.058-111.586,4.734-6.763,9.469-13.863,13.864-20.964a37.08,37.08,0,0,0,.676-37.871c-7.1-13.188-33.477-44.3-123.424-48.016-128.835-5.748-295.881,1.352-297.572,1.69a15.907,15.907,0,1,1-1.353-31.785c1.69,0,170.428-7.438,300.615-1.69,102.121,4.734,137.627,42.6,149.8,64.922a68.874,68.874,0,0,1-1.015,68.98,246.061,246.061,0,0,1-15.217,22.993c-19.95,28.742-30.095,43.282-5.41,73.715,42.945,53.087,203.568,67.627,261.732,68.641a15.9,15.9,0,1,1-.68,31.785A6.618,6.618,0,0,0,1317.094,882.683Z" transform="translate(294.213 -374.928)" fill="#1c3177"/>
    <path id="Trazado_7403" data-name="Trazado 7403" d="M671.656,589.756c-4.734,13.863-17.584,23.669-40.24,29.417-34.153,8.792-57.148,1.69-57.148,1.69l-.339-12.848-1.352-75.067a146.393,146.393,0,0,1,60.867,1.014c28.066,6.763,40.916,20.626,40.578,43.619A45.768,45.768,0,0,1,671.656,589.756Z" transform="translate(274.185 -384.299)" fill="#f0f6ff"/>
    <path id="Trazado_7404" data-name="Trazado 7404" d="M671.218,570.483c-4.734,13.863-17.584,23.669-40.24,29.417-34.153,8.792-57.148,1.691-57.148,1.691l-.339-12.848c13.527-1.69,30.433-4.058,47-7.439C643.828,576.907,660.736,573.188,671.218,570.483Z" transform="translate(274.622 -365.026)" fill="#c2d7ef"/>
    <path id="Trazado_7405" data-name="Trazado 7405" d="M578.125,620.848c6.908-.127,12.14-20.211,11.686-44.858s-6.423-44.523-13.332-44.4-12.141,20.21-11.687,44.857S571.216,620.975,578.125,620.848Z" transform="translate(270.443 -383.649)" fill="#c2d7ef"/>
    <path id="Trazado_7406" data-name="Trazado 7406" d="M574.276,569.343c1.68-.031,2.919-6.717,2.768-14.932s-1.637-14.851-3.317-14.82-2.921,6.717-2.768,14.932S572.595,569.374,574.276,569.343Z" transform="translate(273.404 -379.819)" fill="#87aacc"/>
    <path id="Trazado_7407" data-name="Trazado 7407" d="M574.278,595.411c1.68-.031,2.919-6.717,2.768-14.932s-1.637-14.851-3.317-14.82-2.921,6.717-2.768,14.932S572.6,595.442,574.278,595.411Z" transform="translate(273.404 -367.336)" fill="#87aacc"/>
  </g>
</svg>
