<svg id="Layer_22" data-name="Layer 22" xmlns="http://www.w3.org/2000/svg" width="5216.14" height="4728.95" viewBox="0 0 5216.14 4728.95">
  <g id="Layer_1" data-name="Layer 1">
    <path id="Trazado_8131" data-name="Trazado 8131" d="M2391.68,458.06H4338a11.9,11.9,0,0,1,11.9,11.91V2581.42a11.9,11.9,0,0,1-11.9,11.9H2391.68a11.9,11.9,0,0,1-11.89-11.9V470a11.9,11.9,0,0,1,11.89-11.94Z" fill="#eaf0ff" fill-rule="evenodd"/>
    <path id="Trazado_8132" data-name="Trazado 8132" d="M3867.43,1399.1,3333.85,5,4808,240Z" fill="none" stroke="#b2c3fb" stroke-linecap="round" stroke-linejoin="round" stroke-width="10"/>
    <path id="Trazado_8133" data-name="Trazado 8133" d="M3151.92,2335.27H5204.24a11.9,11.9,0,0,1,11.9,11.9v52.26a11.9,11.9,0,0,1-11.9,11.91H3151.92a11.91,11.91,0,0,1-11.91-11.91v-52.26a11.91,11.91,0,0,1,11.91-11.9Z" fill="#8088dc" fill-rule="evenodd"/>
    <path id="Trazado_8134" data-name="Trazado 8134" d="M3277.81,2390.11H3116.55a11.9,11.9,0,0,1-11.91-11.9v-52.27a11.9,11.9,0,0,1,11.91-11.9H4796.68" fill="none" stroke="#1b3c87" stroke-linecap="round" stroke-linejoin="round" stroke-width="20"/>
    <path id="Trazado_8135" data-name="Trazado 8135" d="M4981.85,2314h187a11.92,11.92,0,0,1,11.91,11.9v52.27a11.92,11.92,0,0,1-11.91,11.9h-1691" fill="none" stroke="#1b3c87" stroke-linecap="round" stroke-linejoin="round" stroke-width="20"/>
    <path id="Trazado_8136" data-name="Trazado 8136" d="M3328,3222.45V4615.81" fill="none" stroke="#1b3c87" stroke-linecap="round" stroke-linejoin="round" stroke-width="20"/>
    <path id="Trazado_8137" data-name="Trazado 8137" d="M3328,2396.43v543" fill="none" stroke="#1b3c87" stroke-linecap="round" stroke-linejoin="round" stroke-width="20"/>
    <path id="Trazado_8138" data-name="Trazado 8138" d="M3029,3999.09l251.62,289.2,461.89-462.64-416.39,88.44-95.22-101.51" fill="#fff" fill-rule="evenodd"/>
    <path id="Trazado_8139" data-name="Trazado 8139" d="M1756.89,4143,1727,4395l-57.1,146.14,593,187.81-281.33-309.77L2049.94,4219" fill="#fff" fill-rule="evenodd"/>
    <path id="Trazado_8140" data-name="Trazado 8140" d="M1434.46,1954.16c25.36-10.63,216.19-79,241-84.48s36.33-67,85.53-70.67" fill="none" stroke="#1b3c87" stroke-linecap="round" stroke-linejoin="round" stroke-width="20"/>
    <path id="Trazado_8141" data-name="Trazado 8141" d="M1694.71,1725.83h248.63l-45.62,342.52H1734.31Z" fill="#d7e0ff" fill-rule="evenodd"/>
    <path id="Trazado_8142" data-name="Trazado 8142" d="M1661.22,1678.36h315.61c7.38,0,13.37,4.36,13.37,9.72v27.28c0,5.37-6,9.72-13.37,9.72H1661.22c-7.38,0-13.37-4.35-13.37-9.72v-27.28C1647.85,1682.72,1653.84,1678.36,1661.22,1678.36Z" fill="#b2c3fb" fill-rule="evenodd"/>
    <path id="Trazado_8143" data-name="Trazado 8143" d="M1696.69,1640.32h244.67c7.38,0,13.37,4.35,13.37,9.72v18.43c0,5.37-6,9.72-13.37,9.72H1696.69c-7.37,0-13.36-4.35-13.36-9.72V1650C1683.33,1644.67,1689.32,1640.32,1696.69,1640.32Z" fill="#d7e0ff" fill-rule="evenodd"/>
    <path id="Trazado_8144" data-name="Trazado 8144" d="M1719.8,1381.79c-20,35.29,4.86,75.16,23.27,107.7s17.84,80.65-3.8,106.32" fill="none" stroke="#1b3c87" stroke-linecap="round" stroke-linejoin="round" stroke-width="20"/>
    <path id="Trazado_8145" data-name="Trazado 8145" d="M1799.19,1381.79c-20,35.29,4.88,75.16,23.27,107.7s17.87,80.65-3.79,106.32" fill="none" stroke="#1b3c87" stroke-linecap="round" stroke-linejoin="round" stroke-width="20"/>
    <path id="Trazado_8146" data-name="Trazado 8146" d="M1878.61,1381.79c-20,35.29,4.86,75.16,23.26,107.7s17.85,80.65-3.79,106.32" fill="none" stroke="#1b3c87" stroke-linecap="round" stroke-linejoin="round" stroke-width="20"/>
    <path id="Trazado_8147" data-name="Trazado 8147" d="M254.1,3118h1302a11.9,11.9,0,0,1,11.9,11.91V4525.16a11.9,11.9,0,0,1-11.9,11.91H254.1a11.91,11.91,0,0,1-11.91-11.91V3129.91A11.91,11.91,0,0,1,254.1,3118Z" fill="#d7e0ff" fill-rule="evenodd"/>
    <path id="Trazado_8148" data-name="Trazado 8148" d="M3445.94,4052.81l260-260.42-416.38,88.44-95.2-101.51" fill="none" stroke="#1b3c87" stroke-linecap="round" stroke-linejoin="round" stroke-width="20"/>
    <path id="Trazado_8149" data-name="Trazado 8149" d="M2992.43,3965.83,3244.06,4255l124.73-124.94" fill="none" stroke="#1b3c87" stroke-linecap="round" stroke-linejoin="round" stroke-width="20"/>
    <path id="Trazado_8150" data-name="Trazado 8150" d="M2310,3531.69c78.27,49.79,649,453.36,682.89,480.51,43.2-36.72,166.91-151.07,203.85-190.77-33.91-45.8-697.31-796.71-735.89-818.28S2231.72,3481.89,2310,3531.69Z" fill="#112546" fill-rule="evenodd"/>
    <path id="Trazado_8151" data-name="Trazado 8151" d="M2914.72,3964.81l272.41-251.41" fill="none" stroke="#1b3c87" stroke-linecap="round" stroke-linejoin="round" stroke-width="20"/>
    <path id="Trazado_8152" data-name="Trazado 8152" d="M2945.92,4003.41,3224,3750.16" fill="none" stroke="#1b3c87" stroke-linecap="round" stroke-linejoin="round" stroke-width="20"/>
    <path id="Trazado_8153" data-name="Trazado 8153" d="M2267,3449.66c78.28,49.79,649,453.36,682.88,480.52,43.2-36.73,166.91-151.07,203.87-190.78-33.92-45.79-697.32-796.7-735.91-818.28S2188.76,3399.87,2267,3449.66Z" fill="none" stroke="#1b3c87" stroke-linecap="round" stroke-linejoin="round" stroke-width="20"/>
    <path id="Trazado_8154" data-name="Trazado 8154" d="M1694,4081.68l354.79,100.54" fill="none" stroke="#1b3c87" stroke-linecap="round" stroke-linejoin="round" stroke-width="20"/>
    <path id="Trazado_8155" data-name="Trazado 8155" d="M1707.6,4024.67l363.56,96.65" fill="none" stroke="#1b3c87" stroke-linecap="round" stroke-linejoin="round" stroke-width="20"/>
    <path id="Trazado_8156" data-name="Trazado 8156" d="M2039.6,4465.49,1958.3,4376l68.36-200.24" fill="none" stroke="#1b3c87" stroke-linecap="round" stroke-linejoin="round" stroke-width="20"/>
    <path id="Trazado_8157" data-name="Trazado 8157" d="M1733.61,4099.71l-29.9,252.1-57.11,146.13,593,187.81L2110,4543" fill="none" stroke="#1b3c87" stroke-linecap="round" stroke-linejoin="round" stroke-width="20"/>
    <path id="Trazado_8158" data-name="Trazado 8158" d="M632.73,2697C513.6,3364.63,1704.41,3353.41,1864,3345.81c-3.8,89.31-87.84,660.4-85.71,739.89,70.11,15.26,250.57,64.74,296.46,79,35-65.71,449.69-966.51,409.46-1218.69-15.2-95.29-1039.66-373.73-1123.39-371.49S638.94,2662.28,632.73,2697Z" fill="#112546" fill-rule="evenodd"/>
    <path id="Trazado_8159" data-name="Trazado 8159" d="M1754.76,3855.29c-10.43,86.51-17.6,155-17,179,70.1,15.27,250.56,64.75,296.45,79,35-65.71,449.69-966.51,409.46-1218.69-7.47-46.83-258.74-137.91-522.3-218.16" fill="none" stroke="#1b3c87" stroke-linecap="round" stroke-linejoin="round" stroke-width="20"/>
    <path id="Trazado_8160" data-name="Trazado 8160" d="M1723.75,2618.75c-199.69-55.83-371.21-96.53-403.43-95.67-83.72,2.25-721.88,87.76-728.09,122.5C473.1,3313.19,1663.9,3302,1823.5,3294.37c-1.74,40.86-20.27,182.57-39.66,331.91" fill="none" stroke="#1b3c87" stroke-linecap="round" stroke-linejoin="round" stroke-width="20"/>
    <path id="Trazado_8161" data-name="Trazado 8161" d="M1463.42,700.11C1467.17,609.72,1345.73,484,1173.79,484c-348.5,0-416.06,357.65-683.17,843.9-74.16,135-452.3,424-452.3,775.83S317.08,2541.9,580.14,2541.9s837.08-534,837.08-684.74S1318,1498.75,1318,1286.88s29.23-331.41,29.23-387.21S1461.65,863.84,1463.42,700.11Z" fill="#fb5d64" fill-rule="evenodd"/>
    <path id="Trazado_8162" data-name="Trazado 8162" d="M393.9,1401.08C260.73,1555,10,1799.84,10,2086.35c0,351.84,278.76,438.17,541.82,438.17s837.08-534,837.08-684.74-99.25-358.39-99.25-570.25,29.23-331.42,29.23-387.21,114.46-35.84,116.22-199.57c3.75-90.39-117.67-216.13-289.63-216.13-271.3,0-372.34,216.74-529.8,542.18" fill="none" stroke="#1b3c87" stroke-linecap="round" stroke-linejoin="round" stroke-width="20"/>
    <path id="Trazado_8163" data-name="Trazado 8163" d="M1322.81,1394c122.41-28.31,217.24,310.65,201,374.34-44.58,16.27-98.37,18.4-108.27,2.83S1249.42,1411,1322.81,1394Z" fill="#f92e4b" fill-rule="evenodd"/>
    <path id="Trazado_8164" data-name="Trazado 8164" d="M1290.25,1364.73c122.43-28.3,217.24,310.66,201,374.34-44.58,16.28-98.37,18.4-108.26,2.84S1216.86,1381.7,1290.25,1364.73Z" fill="none" stroke="#1b3c87" stroke-linecap="round" stroke-linejoin="round" stroke-width="20"/>
    <path id="Trazado_8165" data-name="Trazado 8165" d="M1112.47,1283.5c535.62,0,359.51,1185.68,270,1282.53S660.5,2778.81,604.73,2726,603.27,1282,1112.47,1283.5Z" fill="#f92e4b" fill-rule="evenodd"/>
    <path id="Trazado_8166" data-name="Trazado 8166" d="M1050.14,2649.77c-204.28,47.64-437.43,75.12-470.3,44-19.25-18.24-25.39-196.1-4.2-421.08" fill="none" stroke="#1b3c87" stroke-linecap="round" stroke-linejoin="round" stroke-width="20"/>
    <path id="Trazado_8167" data-name="Trazado 8167" d="M1452.93,1786.32c26,328.2-47.2,695.39-95.35,747.49-19.31,20.89-63.87,42.67-122.48,63.45" fill="none" stroke="#1b3c87" stroke-linecap="round" stroke-linejoin="round" stroke-width="20"/>
    <path id="Trazado_8168" data-name="Trazado 8168" d="M592,2131.61c55.56-405.55,197.77-881.19,495.63-880.33,206.41,0,307.14,176.12,347.84,398.14" fill="none" stroke="#1b3c87" stroke-linecap="round" stroke-linejoin="round" stroke-width="20"/>
    <path id="Trazado_8169" data-name="Trazado 8169" d="M784.07,1953.85c16.78,46.92,184.17,496.05,262.5,528,156.49,63.73,676.8-415.61,733.16-439.19,63.16-25.47,55.11-.43,109.59-.43s103.61-63.35,103.61-108.12-53.93-112.63-101-112.63-144.14,92-180.52,107.74-455.24,222.62-476.64,228.33c-12.13-54.23-65.65-227.62-95.62-296.83S767.29,1906.94,784.07,1953.85Z" fill="#fff" fill-rule="evenodd"/>
    <path id="Trazado_8170" data-name="Trazado 8170" d="M1637.71,1929.68c-115,55.34-417.09,204-435.19,208.78-12.13-54.23-65.64-227.62-95.6-296.83s-371.86,46.27-355.07,93.18,184.17,496.05,262.5,528c33,13.44,82.14,2.73,139.73-22.75" fill="none" stroke="#1b3c87" stroke-linecap="round" stroke-linejoin="round" stroke-width="20"/>
    <path id="Trazado_8171" data-name="Trazado 8171" d="M1314.73,2348.52c191.65-126.84,398.42-310.58,432.77-325,63.16-25.47,52.5-11.51,87,.43,54.47,0,126.16-64.21,126.16-109s-53.92-112.63-101-112.63c-27.69,0-72.64,31.82-112.39,61.24" fill="none" stroke="#1b3c87" stroke-linecap="round" stroke-linejoin="round" stroke-width="20"/>
    <path id="Trazado_8172" data-name="Trazado 8172" d="M806,1387c180.87-77.35,389,416.31,354.89,493.65s-361.7,159.25-411.76,120.57S637.6,1459,806,1387Z" fill="#f92e4b" fill-rule="evenodd"/>
    <path id="Trazado_8173" data-name="Trazado 8173" d="M1080.35,1914.66C973.2,1970.55,770.9,2012,732.46,1982.3c-13-10-26.71-51.25-37-108.1" fill="none" stroke="#1b3c87" stroke-linecap="round" stroke-linejoin="round" stroke-width="20"/>
    <path id="Trazado_8174" data-name="Trazado 8174" d="M682.72,1597.79c9.89-106.89,40.59-201.48,106.61-229.72,142.84-61.09,302.69,234,346.78,398.86" fill="none" stroke="#1b3c87" stroke-linecap="round" stroke-linejoin="round" stroke-width="20"/>
    <path id="Trazado_8175" data-name="Trazado 8175" d="M1056.09,1045.3c6.5,48.75,4.54,239.19-11.71,303.54,24.06,25.35,138.46,54,204.75,29.25-3.9-42.25,1.31-148.85,10.41-185.9S1049.59,996.55,1056.09,1045.3Z" fill="#fff" fill-rule="evenodd"/>
    <path id="Trazado_8176" data-name="Trazado 8176" d="M1229.25,1352c-3.9-42.25,1.31-148.84,10.4-185.89s-209.93-195.64-203.43-146.9,4.54,239.2-11.71,303.54c12.75,13.44,50.89,27.79,93.8,34.63" fill="none" stroke="#1b3c87" stroke-linecap="round" stroke-linejoin="round" stroke-width="20"/>
    <path id="Trazado_8177" data-name="Trazado 8177" d="M1005.8,931.51c-19.88-167.68,60.66-314.34,179.91-327.58s232,112,251.89,279.66-60.66,314.34-179.9,327.57S1025.68,1099.19,1005.8,931.51Z" fill="#fff" fill-rule="evenodd"/>
    <path id="Trazado_8178" data-name="Trazado 8178" d="M1414.31,950.81c-13.14,125.81-84.29,223.81-180.73,234.51-119.24,13.24-232-112-251.9-279.65s60.67-314.34,179.91-327.58c115.52-12.82,225,104.33,249.77,264.15" fill="none" stroke="#1b3c87" stroke-linecap="round" stroke-linejoin="round" stroke-width="20"/>
    <path id="Trazado_8179" data-name="Trazado 8179" d="M1420.36,786.74c-23.12,0-83.51-20.76-99.54-72.19-17.47,48.6-155.23,209.49-241.1,237.79,7.08,32.56,13.22,149.57-73.13,210.9S855.13,827.79,896.19,757.49s215.62-207.13,266.56-206.66S1428.86,552.25,1420.36,786.74Z" fill="#fb5d64" fill-rule="evenodd"/>
    <path id="Trazado_8180" data-name="Trazado 8180" d="M1186.72,840.4c-42,41.11-87.87,77.08-124.36,89.11,5.4,24.87,10.26,99-26.23,160" fill="none" stroke="#1b3c87" stroke-linecap="round" stroke-linejoin="round" stroke-width="20"/>
    <path id="Trazado_8181" data-name="Trazado 8181" d="M1403,763.9c-23.12,0-83.51-20.76-99.55-72.18-5.73,15.93-24.38,43.94-49.9,75.39" fill="none" stroke="#1b3c87" stroke-linecap="round" stroke-linejoin="round" stroke-width="20"/>
    <path id="Trazado_8182" data-name="Trazado 8182" d="M1006.42,969.53a54.895,54.895,0,1,0,0-.007Z" fill="#fff" fill-rule="evenodd"/>
    <path id="Trazado_8183" data-name="Trazado 8183" d="M1045.6,1008.2a54.4,54.4,0,1,1,24.16-103.15" fill="none" stroke="#1b3c87" stroke-linecap="round" stroke-linejoin="round" stroke-width="20"/>
    <path id="Trazado_8184" data-name="Trazado 8184" d="M1313.35,942.55c0,26.7,16.55,64,31.47,80.24" fill="none" stroke="#1b3c87" stroke-linecap="round" stroke-linejoin="round" stroke-width="20"/>
    <path id="Trazado_8185" data-name="Trazado 8185" d="M1226.93,896.9c0-15,6.79-27.24,15.16-27.24s15.14,12.2,15.14,27.24-6.77,27.23-15.14,27.23S1226.93,911.94,1226.93,896.9Z" fill="#1b3c87" fill-rule="evenodd"/>
    <path id="Trazado_8186" data-name="Trazado 8186" d="M1205.29,1044.13c9.56,23.87,28.11,36.07,51.46,37.67" fill="none" stroke="#1b3c87" stroke-linecap="round" stroke-linejoin="round" stroke-width="20"/>
    <path id="Trazado_8187" data-name="Trazado 8187" d="M4940.39,4244.45v371.36" fill="none" stroke="#1b3c87" stroke-linecap="round" stroke-linejoin="round" stroke-width="20"/>
    <path id="Trazado_8188" data-name="Trazado 8188" d="M4940.39,2396.43V3946.07" fill="none" stroke="#1b3c87" stroke-linecap="round" stroke-linejoin="round" stroke-width="20"/>
    <path id="Trazado_8189" data-name="Trazado 8189" d="M3439.66,2086.59V1895" fill="none" stroke="#1b3c87" stroke-linecap="round" stroke-linejoin="round" stroke-width="20"/>
    <path id="Trazado_8190" data-name="Trazado 8190" d="M3644.68,1891v353.07a69.6,69.6,0,0,1-69.59,69.6h-65.84a69.6,69.6,0,0,1-69.59-69.59v-67.53" fill="none" stroke="#1b3c87" stroke-linecap="round" stroke-linejoin="round" stroke-width="20"/>
    <path id="Trazado_8191" data-name="Trazado 8191" d="M3439.93,1892.45c0-60.16,61.09-106.87,61.09-167" fill="none" stroke="#1b3c87" stroke-linecap="round" stroke-linejoin="round" stroke-width="20"/>
    <path id="Trazado_8192" data-name="Trazado 8192" d="M3644.29,1891.27c0-60.16-60.15-105.69-60.15-165.85" fill="none" stroke="#1b3c87" stroke-linecap="round" stroke-linejoin="round" stroke-width="20"/>
    <path id="Trazado_8193" data-name="Trazado 8193" d="M3483.66,1668.51h117a15.47,15.47,0,0,1,15.48,15.46v11.35a15.48,15.48,0,0,1-15.48,15.47h-117a15.48,15.48,0,0,1-15.48-15.47V1684a15.469,15.469,0,0,1,15.48-15.49Z" fill="none" stroke="#1b3c87" stroke-linecap="round" stroke-linejoin="round" stroke-width="20"/>
    <path id="Trazado_8194" data-name="Trazado 8194" d="M4025.47,1943.9c75.92.72,154,1.95,177.4,1.95l31.1,225.33c0,78.1-50.93,141.41-113.75,141.41H3983.06c-62.84,0-113.77-63.31-113.77-141.41l26.2-227.56c13.54-.19,30.07-.25,48.4-.23" fill="none" stroke="#1b3c87" stroke-linecap="round" stroke-linejoin="round" stroke-width="20"/>
    <path id="Trazado_8195" data-name="Trazado 8195" d="M4207.62,1976.51a98.85,98.85,0,0,1,31.48,192.55" fill="none" stroke="#1b3c87" stroke-linecap="round" stroke-linejoin="round" stroke-width="20"/>
    <path id="Trazado_8196" data-name="Trazado 8196" d="M3892.72,1943.37h-89.39c30.14,67.71,69.91,156.21,69.91,156.21" fill="none" stroke="#1b3c87" stroke-linecap="round" stroke-linejoin="round" stroke-width="20"/>
    <path id="Trazado_8197" data-name="Trazado 8197" d="M4799.79,2062.3v245.76H4583.56V1889.24h216.23V1959" fill="none" stroke="#1b3c87" stroke-linecap="round" stroke-linejoin="round" stroke-width="20"/>
    <path id="Trazado_8198" data-name="Trazado 8198" d="M4519.74,1768.2H4736l63.8,121.8H4583.56Z" fill="none" stroke="#1b3c87" stroke-linecap="round" stroke-linejoin="round" stroke-width="20"/>
    <path id="Trazado_8199" data-name="Trazado 8199" d="M4518.41,1708.34H4732.6v57.77H4518.41Z" fill="none" stroke="#1b3c87" stroke-linecap="round" stroke-linejoin="round" stroke-width="20"/>
    <path id="Trazado_8200" data-name="Trazado 8200" d="M4519.22,1768.2,4455.41,1890h126.25" fill="none" stroke="#1b3c87" stroke-linecap="round" stroke-linejoin="round" stroke-width="20"/>
    <path id="Trazado_8201" data-name="Trazado 8201" d="M4455.64,1889.24h126.5v418.82h-126.5Z" fill="none" stroke="#1b3c87" stroke-linecap="round" stroke-linejoin="round" stroke-width="20"/>
    <path id="Trazado_8202" data-name="Trazado 8202" d="M3439.42,1921.54c11.57-24.54,38-33.34,66.22-33.34s56,33.8,79.18,33.8,60.15-12,60.15-31.39" fill="none" stroke="#1b3c87" stroke-linecap="round" stroke-linejoin="round" stroke-width="20"/>
  </g>
</svg>
