<svg id="Grupo_672" data-name="Grupo 672" xmlns="http://www.w3.org/2000/svg" width="351.267" height="116.089" viewBox="0 0 351.267 116.089">
  <path id="Trazado_6639" data-name="Trazado 6639" d="M186.3,106.3v68.037a1.01,1.01,0,0,1-1.832.588L132.18,101.858a13.1,13.1,0,0,0-10.652-5.475h0a13.1,13.1,0,0,0-13.1,13.1v91.459a9.917,9.917,0,0,0,9.916,9.916h0a9.917,9.917,0,0,0,9.917-9.916V132.9a1.009,1.009,0,0,1,1.83-.588l52.294,73.068a13.1,13.1,0,0,0,10.652,5.476h0a13.1,13.1,0,0,0,13.1-13.1V106.3a9.917,9.917,0,0,0-9.916-9.916h0A9.917,9.917,0,0,0,186.3,106.3Z" transform="translate(-108.428 -96.383)" fill="#fff"/>
  <path id="Trazado_6640" data-name="Trazado 6640" d="M243.523,191.878c-14.353,0-21.927-8.705-22.41-18.7h56.6a5.155,5.155,0,0,0,5.155-5.164h0c0-23.38-15.638-43.372-40.794-43.372-24.668,0-40.793,19.186-40.793,41.922,0,23.864,16.931,42.888,42.083,42.888,14.417,0,24.822-6.38,31.09-13.89a8.73,8.73,0,0,0-5.757-14.254h0a8.732,8.732,0,0,0-7.53,2.936A22.448,22.448,0,0,1,243.523,191.878Zm-1.441-49.662c12.417,0,20.316,8.221,20.961,17.252H221.121C221.6,150.114,229.99,142.215,242.081,142.215Z" transform="translate(-98.497 -93.361)" fill="#fff"/>
  <path id="Trazado_3513" data-name="Trazado 3513" d="M428.08,155.951H410.895a5.056,5.056,0,0,1-5.057-5.056v-17a5.056,5.056,0,0,0-5.056-5.057H388.9a5.056,5.056,0,0,0-5.056,5.057v17a5.056,5.056,0,0,1-5.057,5.056h-17a5.056,5.056,0,0,0-5.057,5.057v11.878a5.057,5.057,0,0,0,5.057,5.058h17A5.056,5.056,0,0,1,383.846,183v17.186a5.056,5.056,0,0,0,5.056,5.057h11.879a5.056,5.056,0,0,0,5.056-5.057V183a5.056,5.056,0,0,1,5.057-5.056H428.08a5.057,5.057,0,0,0,5.057-5.058V161.008A5.056,5.056,0,0,0,428.08,155.951Z" transform="translate(-81.87 -92.912)" fill="#fff"/>
  <path id="Trazado_6641" data-name="Trazado 6641" d="M344.418,185.906a22.123,22.123,0,0,0-1.068-6.952l-.006-.016a20.046,20.046,0,0,0-2.169-4.552c-.027-.042-.052-.084-.08-.125q-.442-.681-.949-1.346c-.042-.055-.085-.11-.129-.165-.343-.442-.705-.878-1.093-1.308-.032-.037-.066-.072-.1-.107q-.583-.639-1.232-1.261c-.028-.027-.052-.053-.08-.08-.431-.407-.889-.808-1.365-1.205-.083-.069-.165-.138-.249-.207q-.7-.569-1.46-1.122c-.105-.076-.212-.152-.319-.227-.519-.369-1.058-.734-1.624-1.092-.091-.057-.185-.114-.277-.172-.576-.357-1.17-.711-1.791-1.057l-.123-.07c-.648-.359-1.329-.71-2.029-1.056-.113-.055-.223-.112-.336-.167-.693-.338-1.415-.667-2.159-.993l-.363-.157q-1.162-.5-2.406-.98c-.066-.027-.135-.051-.2-.076-.885-.339-1.8-.671-2.744-.994-2.623-.9-4.96-1.7-7.069-2.405-8.948-3.025-13.509-4.608-15.2-7.1-.048-.068-.1-.135-.141-.2a9.451,9.451,0,0,1-1.9-5.427,6.847,6.847,0,0,1,6.925-6.924,7.51,7.51,0,0,1,5.659,2.631A7.508,7.508,0,0,1,314,138.358a6.847,6.847,0,0,1,6.924,6.924,8.258,8.258,0,0,1-.737,3.37,1.973,1.973,0,0,0,1.728.969h14.952a2.868,2.868,0,0,0,2.829-3.358c-2.181-12.143-13.884-21.633-32.367-21.633-15.479,0-30.155,8.874-30.155,23.538a19.945,19.945,0,0,0,2.7,10.331l.008.016c.284.481.6.943.921,1.4.069.1.131.2.2.292.3.407.625.8.957,1.187.113.132.221.266.337.394.321.358.661.7,1.008,1.042.148.146.294.293.448.436.341.318.7.625,1.06.929.183.152.364.3.551.451q.542.427,1.111.835.321.229.65.453c.376.255.758.506,1.151.749.247.154.5.3.754.453q.5.292,1.012.576h-.1a60.229,60.229,0,0,0,11.516,4.661c16.43,5.3,22.9,6.61,22.9,13.06,0,5-6.127,7.42-12.9,7.42-8.705,0-14.667-3.134-16.6-7.992a2.765,2.765,0,0,0-.813-1.115v0l-.018-.011a2.416,2.416,0,0,0-1.526-.552h-.091c-.039,0-.078-.009-.116-.009H278.032a3.029,3.029,0,0,0-2.338,1.1,3.11,3.11,0,0,0-.724,2.631c2.851,15.078,16.851,22.55,35.974,22.55q.9,0,1.792-.028C330.476,208.923,344.418,200.6,344.418,185.906Z" transform="translate(-90.621 -93.362)" fill="#fff"/>
</svg>
