<svg width="137" height="204" viewBox="0 0 137 204" fill="none" xmlns="http://www.w3.org/2000/svg">
<path opacity="0.08" d="M67.9687 203.25C102.887 203.25 131.194 200.446 131.194 196.987C131.194 193.529 102.887 190.725 67.9687 190.725C33.0505 190.725 4.74374 193.529 4.74374 196.987C4.74374 200.446 33.0505 203.25 67.9687 203.25Z" fill="#F92E4B"/>
<path opacity="0.08" d="M23.8125 192.319C23.4938 192.019 -22.9312 127.163 15.5813 106.819C67.9875 79.1063 -1.79999 -14.4937 94.95 2.8875C188.1 19.6125 75.75 93.5063 113.906 120.506C138.937 138.206 153.469 180.731 101.119 194.381C67.9125 203.006 31.8938 199.875 23.8125 192.319Z" fill="#F92E4B"/>
<path d="M95.0812 117.356L96.4125 115.5C96.7687 114.806 98.4 114.919 98.925 115.481C99.2812 115.875 98.9812 116.925 98.8125 117.281C98.4 118.162 96.3187 121.575 96.3187 121.575C96.3187 121.575 95.3062 122.025 94.425 120.956C93.8062 120.244 94.8 117.75 95.0812 117.356Z" fill="#FCD2B1"/>
<path d="M98.5312 142.856C98.5312 142.856 97.8938 138.394 96.3563 133.894C94.8188 129.394 96.3187 121.275 96.3187 121.275C96.3187 121.275 94.1625 120.019 93.825 120.694C93.4875 121.369 91.0125 132.356 91.0125 132.356C91.0125 132.356 90.9187 139.013 92.3812 141.094C93.2625 142.331 96.9562 144.131 98.5312 142.856Z" fill="#F92E4B"/>
<path d="M91.8 193.988C91.8 193.988 91.5187 195.469 91.5375 196.65C91.7062 197.475 91.5375 197.719 91.5375 197.719L88.1625 197.456C88.1625 197.456 89.6625 196.781 89.55 193.575C89.4375 190.35 91.8 193.988 91.8 193.988Z" fill="#FCD2B1"/>
<path d="M91.575 196.894C91.575 196.894 90.1125 197.4 88.65 197.025C86.9437 197.756 85.7437 198.037 84.1875 198.225C82.6312 198.412 82.9125 199.575 85.5562 199.425C88.2 199.256 90.0562 199.369 90.6562 199.425C91.2375 199.481 92.1938 199.556 92.2313 199.162C92.2875 198.787 92.0625 196.762 91.575 196.894Z" fill="#0B4870"/>
<path d="M90.5625 152.606C90.5625 152.606 88.3875 172.144 88.2562 174.694C88.125 177.244 88.125 178.125 88.2562 179.681C88.3875 181.238 89.5312 194.287 89.5312 194.287L91.7438 194.419C91.7438 194.419 93.3937 180.188 94.05 177.75C94.6875 175.313 97.2187 162.975 97.2187 162.975L94.3125 150.356L90.5625 152.606Z" fill="#0E538C"/>
<path d="M101.1 194.25C101.1 194.25 100.987 195.338 101.1 196.519C101.325 197.325 101.194 197.588 101.194 197.588L97.8 197.606C97.8 197.606 99.225 196.819 98.8688 193.613C98.4938 190.406 101.1 194.25 101.1 194.25Z" fill="#FCD2B1"/>
<path d="M101.006 196.894C101.006 196.894 99.5438 197.4 98.0813 197.025C96.375 197.756 95.175 198.037 93.6188 198.225C92.0625 198.412 92.3438 199.575 94.9875 199.425C97.6313 199.256 99.4875 199.369 100.088 199.425C100.669 199.481 101.625 199.556 101.663 199.162C101.7 198.787 101.494 196.762 101.006 196.894Z" fill="#0B4870"/>
<path d="M94.9313 152.606C94.9313 152.606 96.7688 172.219 96.6375 174.769C96.5063 177.319 98.8688 194.306 98.8688 194.306L101.1 194.344C101.1 194.344 101.681 179.419 101.681 176.906C101.681 174.506 102.469 155.044 102.469 155.044L99.1875 150.356L94.9313 152.606Z" fill="#0E538C"/>
<path d="M93.6562 139.013C93.6562 139.013 103.631 139.706 104.269 141.956C104.906 144.206 104.062 160.95 104.062 160.95C104.062 160.95 94.2563 163.688 89.5312 159.131C89.8687 157.519 91.3125 141.544 93.6562 139.013Z" fill="#F92E4B"/>
<path d="M97.2375 137.25L96.3 140.775C96.3 140.775 96.6187 142.369 98.3812 142.219C100.144 142.069 100.331 141.038 100.331 141.038L99.6375 137.044C99.6562 137.044 97.95 136.744 97.2375 137.25Z" fill="#FCD2B1"/>
<path d="M96.1312 131.737C96.1312 131.737 93.9187 135.075 94.3312 136.237C94.7437 137.4 96.2812 138.356 99.6937 138.394C100.837 138.112 101.775 134.531 101.662 133.8C100.987 129.094 97.2937 130.819 96.1312 131.737Z" fill="#FFE3CA"/>
<path d="M95.5312 132.056C96.7312 133.181 97.3687 132.975 98.9437 132.919C99.9 132.881 100.294 133.65 100.05 134.138C99.8062 134.625 98.7562 135.637 99.525 135.712C100.312 135.787 100.256 134.55 100.8 135.075C101.344 135.619 100.162 137.044 100.744 137.344C101.325 137.644 103.331 137.025 102.844 135.675C102.375 134.325 106.594 130.65 99.6562 128.587C97.875 128.062 97.2375 128.25 96.6562 128.212C95.3062 128.119 95.3625 131.906 95.5312 132.056Z" fill="#0B4870"/>
<path opacity="0.2" d="M54.975 136.631C54.975 124.369 56.3625 114.713 59.1375 107.606C61.9125 100.519 66.3937 94.3688 72.6187 89.1563C78.825 83.9438 83.55 79.1813 86.775 74.8688C90 70.5375 91.6312 65.775 91.6312 60.5813C91.6312 47.9063 86.175 41.5688 75.2625 41.5688C70.2188 41.5688 66.15 43.425 63.0562 47.1C59.9437 50.7938 58.3125 55.7813 58.1437 62.0813H15.5625C15.7312 45.3 21.0187 32.2313 31.425 22.8563C41.8312 13.5 53.8313 8.19376 72.6375 8.19376C91.35 8.19376 108.45 13.1438 118.744 21.7875C129.019 30.4313 134.175 42.7313 134.175 58.6688C134.175 65.6438 132.788 71.9813 130.013 77.6813C127.238 83.3813 122.794 89.2313 116.662 95.175L102.188 108.656C98.0813 112.594 95.2125 116.644 93.6188 120.806C92.025 124.969 91.1437 130.237 90.975 136.612H54.975V136.631ZM49.8188 174.919C49.8188 168.713 55.6125 158.606 60.1125 154.612C60.1125 154.612 66 153.019 72.7313 153.019C79.4438 153.019 85.6875 155.625 90.1688 159.619C94.65 163.613 96.9 168.713 96.9 174.919C96.9 181.125 94.65 186.225 90.1688 190.219C85.6688 194.213 80.0812 196.2 73.3687 196.2C66.6562 196.2 61.05 194.213 56.5688 190.219C52.0688 186.225 49.8188 181.125 49.8188 174.919Z" fill="#F92E4B"/>
<path d="M49.3312 136.631C49.3312 124.369 50.7187 114.713 53.4937 107.606C56.2687 100.519 60.75 94.3688 66.975 89.1563C73.1813 83.9438 77.9063 79.1813 81.1313 74.8688C84.3563 70.5375 85.9875 65.775 85.9875 60.5813C85.9875 47.9063 80.5312 41.5688 69.6187 41.5688C64.575 41.5688 60.5063 43.425 57.4125 47.1C54.3 50.7938 52.6687 55.7813 52.5 62.0813H9.9375C10.0875 45.3188 15.375 32.25 25.7812 22.875C36.1875 13.5188 50.7938 8.85001 69.6 8.85001C88.3125 8.85001 102.825 13.1813 113.1 21.825C123.375 30.4688 128.531 42.7688 128.531 58.7063C128.531 65.6813 127.144 72.0188 124.369 77.7188C121.594 83.4188 117.15 89.2688 111.019 95.2125L96.5438 108.694C92.4375 112.631 89.5688 116.681 87.975 120.844C86.3813 125.006 85.5 130.275 85.3312 136.65H49.3312V136.631ZM44.1562 174.919C44.1562 168.713 46.4063 163.613 50.8875 159.619C55.3688 155.625 60.975 153.638 67.6875 153.638C74.4 153.638 80.0062 155.625 84.4875 159.619C88.9687 163.613 91.2188 168.713 91.2188 174.919C91.2188 181.125 88.9687 186.225 84.4875 190.219C79.9875 194.213 74.4 196.2 67.6875 196.2C60.975 196.2 55.3688 194.213 50.8875 190.219C46.4063 186.225 44.1562 181.125 44.1562 174.919Z" fill="#F92E4B"/>
<path d="M104.831 165.6C104.831 165.6 103.181 166.162 102.769 169.331C102.731 169.612 103.256 169.575 103.312 169.294L104.175 167.531C104.381 168.038 104.044 168.094 103.931 168.6L103.537 169.894C103.387 170.4 103.837 170.869 104.344 170.737C104.812 170.606 105.319 170.437 105.525 170.212C105.975 169.725 107.081 166.856 106.725 166.144C106.369 165.45 105.6 164.944 104.831 165.6Z" fill="#FCD2B1"/>
<path d="M101.344 141.544C102.337 140.344 104.25 140.494 105.112 141.806C106.612 144.075 109.406 148.725 109.388 151.687C109.519 155.119 106.725 166.181 106.725 166.181C106.725 166.181 105.431 166.181 104.831 165.619C104.869 164.719 105.263 154.162 105.263 154.162C105.263 154.162 101.419 148.481 100.575 145.856C100.05 144.206 100.481 142.594 101.344 141.544Z" fill="#F92E4B"/>
<path d="M26.6062 127.725C26.6062 127.725 26.5125 124.538 27.6375 123.206C29.1 121.463 32.7937 121.294 34.425 122.475C36.2437 123.788 37.5 126.881 36.5812 129.375C39.3562 130.463 42.3937 131.831 41.2312 139.219C38.8687 154.106 20.1562 147.713 24.4312 134.55C25.3875 131.663 26.6062 127.725 26.6062 127.725Z" fill="#0B4870"/>
<path d="M36.7875 190.35C36.7875 190.35 37.05 191.738 37.0313 192.825C36.8813 193.594 37.0313 193.819 37.0313 193.819L40.1625 193.575C40.1625 193.575 38.775 192.956 38.8688 189.956C38.9813 186.975 36.7875 190.35 36.7875 190.35Z" fill="#B97A59"/>
<path d="M36.9937 193.069C36.9937 193.069 38.3625 193.538 39.7125 193.181C41.3062 193.856 42.4125 194.119 43.8563 194.287C45.3 194.456 45.0375 195.544 42.5812 195.394C40.125 195.244 38.4 195.337 37.8563 195.394C37.3125 195.45 36.4312 195.506 36.3937 195.15C36.3562 194.813 36.5437 192.956 36.9937 193.069ZM37.95 151.95C37.95 151.95 39.975 170.1 40.0875 172.462C40.2 174.825 40.2 175.65 40.0875 177.094C39.975 178.538 38.8875 190.65 38.8875 190.65L36.825 190.763C36.825 190.763 35.2875 177.544 34.6875 175.294C34.0875 173.025 31.7437 161.588 31.7437 161.588L34.4437 149.869L37.95 151.95Z" fill="#0B4870"/>
<path d="M28.1625 190.612C28.1625 190.612 28.275 191.625 28.1625 192.712C27.9562 193.462 28.0875 193.688 28.0875 193.688L31.2375 193.706C31.2375 193.706 29.9062 192.975 30.2437 189.994C30.5812 187.031 28.1625 190.612 28.1625 190.612Z" fill="#B97A59"/>
<path d="M28.2375 193.069C28.2375 193.069 29.6062 193.538 30.9562 193.181C32.55 193.856 33.6563 194.119 35.1 194.287C36.5438 194.456 36.2813 195.544 33.825 195.394C31.3688 195.244 29.6438 195.338 29.1 195.394C28.5563 195.45 27.675 195.506 27.6375 195.15C27.6 194.813 27.8062 192.956 28.2375 193.069ZM33.8813 151.95C33.8813 151.95 32.175 170.156 32.2875 172.519C32.4 174.881 30.225 190.669 30.225 190.669L28.1625 190.706C28.1625 190.706 27.6375 176.85 27.6375 174.506C27.6375 172.294 26.9062 154.2 26.9062 154.2L29.9625 149.85L33.8813 151.95Z" fill="#0B4870"/>
<path d="M40.3312 126.188C40.3312 126.188 38.925 124.988 38.6812 124.575C37.9875 123.506 36.8625 123.263 36.1312 123.225C35.7562 123.206 35.4562 123.506 35.4562 123.863C35.4562 123.956 35.5125 124.05 35.5875 124.106L37.425 124.988C37.5187 125.025 37.5187 125.044 37.5937 125.119L37.6687 125.269C37.8 125.438 37.7812 125.513 37.5562 125.55L37.3125 125.531C37.2 125.55 36.3562 125.231 36.2625 125.175C36.1125 125.1 35.925 125.231 35.9437 125.4C35.9437 125.531 36.0187 125.663 36.15 125.719L37.575 126.619L38.7375 127.031C41.325 129.094 43.5187 130.613 43.7812 131.25C41.0812 133.181 35.8125 135.525 35.8125 135.525L37.9875 137.981C37.9875 137.981 44.6062 134.475 46.1625 133.2C49.4437 130.069 42.9937 127.388 40.3312 126.188Z" fill="#B97A59"/>
<path d="M36.0375 141.356C35.7562 142.013 37.8937 151.125 38.25 153.225C38.25 153.225 38.2125 153.225 38.1187 153.206C37.1812 153.075 31.4812 152.306 26.8875 154.238L26.475 141.375L26.4562 140.906C26.4562 140.906 26.4562 140.419 26.4937 139.669C26.6062 138.131 26.9062 135.563 27.9 133.894C28.4062 133.031 29.0812 132.413 30 132.338C32.8687 132.056 35.1375 133.294 36.225 133.631C38.025 134.194 39.0937 133.856 39.0937 133.856C39.0937 133.856 40.5187 137.4 39.8062 138.038L36.8062 139.294C36.8437 139.256 36.3187 140.681 36.0375 141.356Z" fill="#F92E4B"/>
<path d="M35.2875 124.144C35.2875 124.144 37.1062 128.363 35.7375 130.275C34.7062 131.719 32.9062 131.756 32.9062 131.756V133.838C32.9062 133.838 32.7 134.025 32.3437 134.044C31.7062 134.081 30.0375 133.069 30.0375 133.069V124.894L35.2875 124.144ZM26.1562 140.456C26.1562 140.456 27.6 147.788 28.2375 149.644C28.575 151.125 38.025 151.556 38.625 151.669C39.7687 152.681 40.4062 152.644 40.7812 152.644C41.0625 152.644 40.9312 152.7 42.4312 152.794C43.1062 152.831 43.5562 152.138 43.2375 151.538C42.45 150.769 42.5062 151.05 41.4375 150.825C40.2937 150.6 40.0125 150.469 40.2 150.263C41.3438 148.988 40.3125 148.725 39.1688 150.038C39.0938 150.113 38.9625 150.056 38.85 150.056C36.6563 149.531 31.4812 148.069 30.7687 148.05C29.9437 144.938 29.7187 139.406 29.7187 139.406L26.1562 140.456Z" fill="#B97A59"/>
<path d="M25.5937 141.731C25.5937 141.731 24.975 135.694 26.7562 134.25C28.5375 132.806 30.5625 135.131 30.4687 138.187C30.375 141.225 30.4312 142.331 30.4312 142.331C30.4312 142.331 27.6937 143.25 25.5937 141.731Z" fill="#F92E4B"/>
<path d="M35.4562 123.675C35.4562 123.675 34.5187 129.113 32.25 128.138C30.1875 127.256 31.2188 128.1 29.325 129.919C28.7625 130.463 29.2125 124.163 29.2125 124.163L35.4562 123.675Z" fill="#0B4870"/>
</svg>
