<svg xmlns="http://www.w3.org/2000/svg" width="383.577" height="403.881" viewBox="0 0 383.577 403.881">
  <g id="bookcab" transform="translate(-120.078 -48.413)">
    <g id="Grupo_2608" data-name="Grupo 2608" transform="translate(120.078 48.413)">
      <g id="Grupo_2601" data-name="Grupo 2601">
        <g id="Grupo_2609" data-name="Grupo 2609">
          <g id="Grupo_2564" data-name="Grupo 2564">
            <rect id="Rectángulo_1243" data-name="Rectángulo 1243" width="349.571" height="372.139" transform="matrix(0.995, -0.096, 0.096, 0.995, 0, 33.454)" fill="#e5e7eb"/>
          </g>
          <g id="Grupo_2565" data-name="Grupo 2565" transform="translate(8.721 18.933)">
            <path id="Trazado_7370" data-name="Trazado 7370" d="M323.882,80.767,310.17,111.715,489.764,331.161l.9,9.57L269.842,73.244l-29.663,10.57-19.854,18.855-97.939,60.182-.476-5.047,96.749-59.992,18.331-18.188,30.52-11.046-12.57-15.284,9.094-.9,10.38,13.189L303.5,60.2l74.037,6.237L463.1,54.009l.524,5.475L378.3,70.959Z" transform="translate(-121.91 -52.39)" fill="#fff"/>
          </g>
          <g id="Grupo_2566" data-name="Grupo 2566" transform="translate(164.223 30.598)">
            <path id="Trazado_7371" data-name="Trazado 7371" d="M154.57,60.6,183.042,97.12,197.516,68.7l44.9-9.475L182.28,54.84Z" transform="translate(-154.57 -54.84)" fill="#e5e7eb"/>
          </g>
          <g id="Grupo_2567" data-name="Grupo 2567" transform="translate(176.364 5.078)">
            <path id="Trazado_7372" data-name="Trazado 7372" d="M239.918,345.2l-32.71-17.426-24.235-19.9-15.236-3.714L157.12,282.876l9.142-20.807,23.663-37.233,3.142-10.808,6.237-5.952c.1-.1,16.188-18.855,16.664-27.568.428-7.618,3-14.093,5.095-19.283.476-1.238.952-2.428,1.381-3.571,1.047-2.9,2.523-8.047,3.9-13,1.476-5.285,3.047-10.76,4.238-14.093,1.571-4.238,7.094-14.141,8.761-17.045,6.332-11.284,7.523-12.522,8.142-12.713a.658.658,0,0,1,.19-.143c1.1-.9,3.571-2.952,9.523.619,4.9,2.952,6.618,2.809,6.809,2.619,0,0,.857-1.19-3.238-7.9-7.713-12.617-5.618-26.949-5.523-27.568l2.143-14.284,7.618-4.666,1.19,1.952-6.713,4.095-2,13.236c0,.143-2.047,14.093,5.19,26,3.619,5.952,4.476,9.142,2.9,10.76-.952.952-2.952,1.714-9.618-2.285-4.571-2.762-6.094-1.476-6.9-.809a6.809,6.809,0,0,1-.714.524c-1.762,2.095-13.331,22.187-15.617,28.425-1.19,3.238-2.714,8.665-4.19,13.9s-2.857,10.189-3.952,13.189c-.429,1.143-.9,2.381-1.428,3.619-2.095,5.285-4.523,11.332-4.9,18.569-.524,9.475-16.617,28.234-17.283,29.044l-5.856,5.618-3.142,10.665L168.261,263.26l-8.57,19.616,9.665,19.378,14.712,3.571,24.568,20.14L241.061,343.2Zm7.951-242.157Z" transform="translate(-157.12 -49.48)" fill="#bfc4bf"/>
          </g>
          <g id="Grupo_2568" data-name="Grupo 2568" transform="translate(238.213 120.491)">
            <path id="Trazado_7373" data-name="Trazado 7373" d="M300.663,193.418c-3.714-4.285-10.427-11.379-12.76-12.189-3.571-1.286-8.332-8.856-9.332-10.475-13.808-9.427-34.757-23.521-36.376-24.187-2.047-.571-17.521-15.569-22.664-23-4.761-6.856-21.473-17.283-23.568-18.521l-14.189-1.666L170.11,87.718l.667-14,2.285.1L172.443,87l10.57,14.189,13.712,1.571.19.143c.762.476,19.14,11.617,24.473,19.331,5.047,7.237,19.712,21.283,21.521,22.092,1.571.428,26.52,17.331,37.185,24.616l.19.143.143.238c2,3.333,6.047,8.9,8.285,9.713,3.666,1.286,12.713,11.713,13.712,12.855Z" transform="translate(-170.11 -73.72)" fill="#bfc4bf"/>
          </g>
          <g id="Grupo_2569" data-name="Grupo 2569" transform="translate(15.958 23.076)">
            <path id="Trazado_7374" data-name="Trazado 7374" d="M125.1,218.618l-1.666-1.571,5.428-5.809-1.143-11.855,3.238-10.57c-3.619-2.762-8.523-8.761-4.952-14.665,1.809-2.952,1.286-7,.857-10.522-.524-4-1.1-8.57,3.333-9.142l.524-.048c2.523-.333,4.142-.571,4.761-1.381.667-.952.524-3.285-.428-7.856-2.238-10.38-.667-17.045,6.332-27.377,1.9-2.809,4.666-6.666,7.57-10.76,7.808-10.9,17.474-24.425,19-29.186q.214-.643.428-1.428c1.857-5.952,4.952-15.9,11.189-18.331,2.523-.952,5.237-.571,8.094,1.1,9.523,5.666,11.713,3.571,11.713,3.523l.238-.619.524.143,12.522-2.381,12.522-6.618,9.808,5.856-1.19,1.952-8.666-5.19-11.856,6.237-12.332,2.333a3.41,3.41,0,0,1-1.571.809c-2.762.714-7.094-.667-12.855-4.095-2.238-1.333-4.237-1.666-6.094-.952-5.19,2-8.189,11.665-9.808,16.855q-.214.786-.428,1.428c-1.619,5.095-11.046,18.236-19.331,29.853-2.9,4.047-5.666,7.9-7.57,10.713-6.666,9.856-8.094,15.855-6,25.616,1.19,5.523,1.19,8.047.048,9.665-1.19,1.666-3.238,1.952-6.332,2.333l-.524.048c-1.9.238-2,1.714-1.333,6.571.476,3.714,1.1,8.38-1.143,12.046-3.666,6,4.9,12,5,12.094l.667.476-3.619,11.713,1.19,12.427Z" transform="translate(-123.43 -53.26)" fill="#bfc4bf"/>
          </g>
          <g id="Grupo_2571" data-name="Grupo 2571" transform="translate(102.57 51.739)">
            <g id="Grupo_2570" data-name="Grupo 2570" transform="translate(0 0)">
              <path id="Trazado_7375" data-name="Trazado 7375" d="M147.24,187.778c-3.553-35.536,22.8-67.224,58.34-70.777s67.224,22.8,70.777,58.34c2.369,26.06-5.923,34.056-47.975,109.572-2.665,5.034-9.477,5.627-13.326,1.185C159.679,220.353,149.906,213.838,147.24,187.778Zm91.508-8.884a27.08,27.08,0,1,0-24.284,29.614A27.007,27.007,0,0,0,238.748,178.894Z" transform="translate(-146.919 -116.679)" fill="#f92e4b"/>
            </g>
          </g>
        </g>
      </g>
    </g>
  </g>
</svg>
