<svg xmlns="http://www.w3.org/2000/svg" width="539.983" height="368.159" viewBox="0 0 539.983 368.159">
  <g id="undraw_winners_re_wr1l" transform="translate(-0.007 -140.54)">
    <path id="Trazado_7293" data-name="Trazado 7293" d="M430.092,643.609l-10.007,2.276L406.541,608.37l14.77-3.36Z" transform="translate(-77.293 -153.563)" fill="#ffb6b6"/>
    <path id="Trazado_7294" data-name="Trazado 7294" d="M696.315,774.409l-30.773,7-.089-.389a12.285,12.285,0,0,1,9.252-14.7h0l4.651-5.544,11.458,1.878,2.686-.611Z" transform="translate(-340.788 -274.005)" fill="#2f2e41"/>
    <path id="Trazado_7295" data-name="Trazado 7295" d="M627.1,426.88l5.5,8.663-30.8,25.344-8.12-12.787Z" transform="translate(-112.874 -119.696)" fill="#ffb6b6"/>
    <path id="Trazado_7296" data-name="Trazado 7296" d="M908,531.565l16.919,26.641-.337.214a12.285,12.285,0,0,1-16.955-3.784h0l-6.782-2.522-2.074-11.424-1.477-2.326Z" transform="translate(-384.925 -230.426)" fill="#2f2e41"/>
    <path id="Trazado_7297" data-name="Trazado 7297" d="M505.139,411.968l-2.472-14.326,37.576-16.968,8.115-14.367a6.986,6.986,0,1,1,10.317,4.637l-13.349,20.638Z" transform="translate(-309.897 -197.407)" fill="#a0616a"/>
    <path id="Trazado_7298" data-name="Trazado 7298" d="M226.971,296.023l16.922-8.644,4.479,16.819-11.754,8.713Z" transform="translate(-43.152 -93.173)" fill="#f92e4b"/>
    <path id="Trazado_7299" data-name="Trazado 7299" d="M180.085,641.8h10.231l4.867-39.464h-15.1Z" transform="translate(-34.237 -153.054)" fill="#a0616a"/>
    <path id="Trazado_7300" data-name="Trazado 7300" d="M457.291,762.72v-6.936l-2.69.164-10.949.649-2.534.156-1.937,23.23-.1,1.245h7.265l.234-1.237,1.055-5.621,2.724,5.622.6,1.237h19.261a4.352,4.352,0,0,0,4.324-4.333C475.35,773.1,459.332,764.891,457.291,762.72Z" transform="translate(-297.807 -273.055)" fill="#2f2e41"/>
    <path id="Trazado_7301" data-name="Trazado 7301" d="M29.563,457.676l-2.385,9.95L64.42,481.561l3.52-14.685Z" transform="translate(-5.166 -125.551)" fill="#a0616a"/>
    <path id="Trazado_7302" data-name="Trazado 7302" d="M285.776,580.763l6.745,1.617.467-2.654,1.922-10.8.439-2.5-22.138-7.3-1.187-.391L270.33,565.8l1.148.515,5.221,2.337-6.1,1.339-1.342.292-4.491,18.729a4.352,4.352,0,0,0,3.205,5.216C271.472,595.9,283.189,582.242,285.776,580.763Z" transform="translate(-264.644 -235.591)" fill="#2f2e41"/>
    <path id="Trazado_7303" data-name="Trazado 7303" d="M448.866,446.394,435.7,440.238l-26.263,31.783-16,4.045a6.986,6.986,0,1,0,1.757,11.174l23.425-7.444Z" transform="translate(-287.198 -213.062)" fill="#a0616a"/>
    <path id="Trazado_7313" data-name="Trazado 7313" d="M426.146,511.053s-21.608,14.07-15.894,23.42c.2.322-25.81,34.672-25.81,34.672l-49.1-3.117-1.73,16.432,43.709,12.659s10.693,7.856,18.953-.8,35.775-35.161,35.775-35.161l1.327,53.514-13.812,74.154,20.624-1.308,20.073-74.4,7.409-84.271Z" transform="translate(-277.756 -226.526)" fill="#2f2e41"/>
    <path id="Trazado_7314" data-name="Trazado 7314" d="M459.372,405.943l-9.086,6.886-10.357,22.1,9.959,13.525s8.377,14.518-5.032,28.578-23.706,29.077-12.973,28.541,54.2,21.573,54.487,3.459.865-32,.865-32l11.4-28.905s6.79-17.244,2.023-22.405S489.5,413.97,489.5,413.97L477.9,402.363H467.415Z" transform="translate(-295.589 -205.861)" fill="#f92e4b"/>
    <path id="Trazado_7315" data-name="Trazado 7315" d="M481.629,353.8c20.385,11.6,3.65,42.206-17.115,31.307C444.13,373.509,460.864,342.9,481.629,353.8Z" transform="translate(-300.884 -196.189)" fill="#a0616a"/>
    <path id="Trazado_7316" data-name="Trazado 7316" d="M490.579,358.2c-1.428,1.858-4.413.987-10.257,2.312a24.365,24.365,0,0,0-.681-5.881,16.556,16.556,0,0,1-2.791,6.619c-5.074.563,1.146,15.979-1.452,27.313-3.348-23.912-10.389-17.647-6.832-12.9,2.277,3.036.759,12.145-6.073,7.591-11.272,5.357-27.326-21.254-9.533-33.734-.318-6.746,7.188-7.811,11.81-5.737C475.989,335.423,488.8,346.13,490.579,358.2Z" transform="translate(-298.935 -194.158)" fill="#2f2e41"/>
    <path id="Trazado_7317" data-name="Trazado 7317" d="M426.675,340.151c-4.538,27.9-28.864-5.132-40.3,22.328-3.6,9.944,2.574,17.058,6.477,25.313.891,6.784-7.934,10.225-8.859,16.469-.257,14.316,22.838,13.44,29.295,4.408,6.634-9.455-1.288-22.14,2.7-32.289,5.6-14.09,28.4-14.194,30.383-30.587C442.523,340.318,432.182,334.046,426.675,340.151Z" transform="translate(-287.333 -193.556)" fill="#2f2e41"/>
    <path id="Trazado_7318" data-name="Trazado 7318" d="M458.145,342.045c-.148.063-.3.125-.43.2h-.008c-.125.063-.25.125-.375.2-.016.008-.023.016-.039.023-.164-.156-.328-.313-.5-.469a1.807,1.807,0,0,0,.031.766l.023.094c.156.164.32.32.492.484.156-.117.3-.242.461-.359.094-.078.188-.156.289-.234.016-.2.039-.438.063-.7Zm4.7-8.69c-3.485-.8-4.61,3.759-4.947,5.955-1.266-7.971-6.533-5.462-4.712-.023a12.176,12.176,0,0,0,2.68,4.314c.164.188.344.375.531.563-.211,1.094.852.813,2.29-.2a19.154,19.154,0,0,0,2.93-2.571c2.868-3.008,5.1-7.033,1.226-8.04Zm.109,4.485a27.3,27.3,0,0,1-3.6,3.821q-.621.563-1.266,1.078c-.008.07-.008.133-.016.188a1.435,1.435,0,0,1-.109.219c-.438.789-.93.359-1.117-.3-.016-.023-.039-.047-.055-.07a11.01,11.01,0,0,1-1.618-2.141c-3.227-5.6,1.969-9.4,1.711,1.047a.993.993,0,0,0-.094.3,1.807,1.807,0,0,0,.031.766l.023.094c.156.164.32.32.492.484.156-.117.3-.242.461-.359.094-.078.188-.156.289-.234.016-.2.039-.438.063-.7v-.008c.2-2.094.758-5.861,1.782-6.884,2.25-1.726,5.165.141,3.024,2.688Zm-4.814,4.2c-.148.063-.3.125-.43.2h-.008c-.125.063-.25.125-.375.2-.016.008-.023.016-.039.023-.164-.156-.328-.313-.5-.469a1.807,1.807,0,0,0,.031.766l.023.094c.156.164.32.32.492.484.156-.117.3-.242.461-.359.094-.078.188-.156.289-.234.016-.2.039-.438.063-.7Z" transform="translate(-300.418 -192.723)" fill="#2f2e41"/>
    <path id="Trazado_7319" data-name="Trazado 7319" d="M681.981,531.017l-7.529,19.634-35.317,69.665,31.033,81.042,16.016-4.228-13.2-76.814L710.856,574.3,755.834,604.8s19.947,15.573,27.536.81,56.691-46.163,56.691-46.163l-12.148-12.958-56.545,26.462-39.027-54.932Z" transform="translate(-335.843 -227.851)" fill="#2f2e41"/>
    <path id="Trazado_7320" data-name="Trazado 7320" d="M724.932,415.9l-12.393-13.315-21.259-2.925L665.23,417.9l.262,20.185,12.877,47.563s-4.9,34.172,8.8,33.829,21.167-7.173,26.747-5.783,29.3,7.308,30.8,1.11,9.494-1.76,9.143-7.624-21.631-48.128-21.631-48.128l5.291-42.269Z" transform="translate(-340.804 -205.347)" fill="#f92e4b"/>
    <path id="Trazado_7321" data-name="Trazado 7321" d="M825.442,342.408a7.591,7.591,0,0,1-8.133,8.328l-28.5,54.2-7.652-11.746,29.131-51.155a7.632,7.632,0,0,1,15.154.371Z" transform="translate(-362.845 -193.146)" fill="#ffb6b6"/>
    <path id="Trazado_7322" data-name="Trazado 7322" d="M725.046,418.81s-1.13,9.641,9.724,12.028,40.925-14.8,45.855-17.42c1.544-.822,3.638-4.85,5.788-10,.965-2.31,1.941-4.846,2.883-7.417.545-1.488,3.155-1.894,3.669-3.37s-1.075-4.006-.612-5.389c2.2-6.566,3.751-11.776,3.751-11.776l-7.194-13.513c-10.061,5.319-15.222,17.035-19.017,30.533Z" transform="translate(-352.171 -198.179)" fill="#f92e4b"/>
    <path id="Trazado_7323" data-name="Trazado 7323" d="M568.51,357.325a7.591,7.591,0,0,0,9.958,6.027L619.626,408.7l4.469-13.287L583.09,353.172a7.632,7.632,0,0,0-14.579,4.152Z" transform="translate(-322.397 -195.616)" fill="#ffb6b6"/>
    <path id="Trazado_7324" data-name="Trazado 7324" d="M679.149,407.827s3.507,9.052-6.4,14.079-43.326-4.083-48.755-5.39c-1.7-.409-4.736-3.785-8.1-8.229-1.512-2-3.092-4.206-4.647-6.46-.9-1.3-3.529-1.045-4.4-2.345s.038-4.147-.756-5.371c-3.769-5.808-6.579-10.462-6.579-10.462l3.583-14.883c11.072,2.632,19,12.684,26.053,24.8Z" transform="translate(-328.309 -199.473)" fill="#f92e4b"/>
    <circle id="Elipse_404" data-name="Elipse 404" cx="20.227" cy="20.227" r="20.227" transform="translate(341.301 150.471)" fill="#ffb6b6"/>
    <path id="Trazado_7325" data-name="Trazado 7325" d="M729.062,352.317c-2.128-3.292-6.121-5.486-9.991-4.869a13.644,13.644,0,0,0-22.861-7.958,4.242,4.242,0,0,0-4.149-.415,8.748,8.748,0,0,0-3.371,2.706,19.634,19.634,0,0,0-2.747,19.974c-.473-1.72,1.25-3.338,2.992-3.724s3.568-.021,5.334-.272c2.263-.322,4.3-1.635,6.565-1.93a14.947,14.947,0,0,1,5.679.73,15.4,15.4,0,0,0,5.676.762c1.908-.227,4.365,7,4.333,12.1-.006.965.193,2.2,1.136,2.409,1.161.252,1.834-1.351,2.94-1.788a2.045,2.045,0,0,1,2.509,1.334,3.334,3.334,0,0,1-.637,2.986,9.855,9.855,0,0,1-2.389,2.072l.455.379a2.709,2.709,0,0,0,3.42.425,7.38,7.38,0,0,0,2.455-2.8,32.9,32.9,0,0,0,4.5-10.792A15.717,15.717,0,0,0,729.062,352.317Z" transform="translate(-344.444 -193.2)" fill="#2f2e41"/>
    <path id="Trazado_7327" data-name="Trazado 7327" d="M704.527,785.822c-.621,1.841-355.406,1.84-356.076,0C349.071,783.981,703.856,783.981,704.527,785.822Z" transform="translate(-280.576 -278.504)" fill="#ccc"/>
  </g>
</svg>
