<svg width="360" height="360" viewBox="0 0 360 360" fill="none" xmlns="http://www.w3.org/2000/svg">
<path opacity="0.08" d="M169.969 281.25C204.887 281.25 233.194 278.446 233.194 274.987C233.194 271.529 204.887 268.725 169.969 268.725C135.051 268.725 106.744 271.529 106.744 274.987C106.744 278.446 135.051 281.25 169.969 281.25Z" fill="#F92E4B"/>
<path opacity="0.08" d="M125.813 270.319C125.494 270.019 79.0688 205.163 117.581 184.819C169.987 157.106 100.2 63.5063 196.95 80.8875C290.1 97.6125 177.75 171.506 215.906 198.506C240.937 216.206 255.469 258.731 203.119 272.381C169.913 281.006 133.894 277.875 125.813 270.319Z" fill="#F92E4B"/>
<path d="M197.081 195.356L198.412 193.5C198.769 192.806 200.4 192.919 200.925 193.481C201.281 193.875 200.981 194.925 200.812 195.281C200.4 196.162 198.319 199.575 198.319 199.575C198.319 199.575 197.306 200.025 196.425 198.956C195.806 198.244 196.8 195.75 197.081 195.356Z" fill="#FCD2B1"/>
<path d="M200.531 220.856C200.531 220.856 199.894 216.394 198.356 211.894C196.819 207.394 198.319 199.275 198.319 199.275C198.319 199.275 196.163 198.019 195.825 198.694C195.488 199.369 193.013 210.356 193.013 210.356C193.013 210.356 192.919 217.013 194.381 219.094C195.262 220.331 198.956 222.131 200.531 220.856Z" fill="#F92E4B"/>
<path d="M193.8 271.988C193.8 271.988 193.519 273.469 193.537 274.65C193.706 275.475 193.537 275.719 193.537 275.719L190.163 275.456C190.163 275.456 191.662 274.781 191.55 271.575C191.437 268.35 193.8 271.988 193.8 271.988Z" fill="#FCD2B1"/>
<path d="M193.575 274.894C193.575 274.894 192.112 275.4 190.65 275.025C188.944 275.756 187.744 276.037 186.187 276.225C184.631 276.412 184.912 277.575 187.556 277.425C190.2 277.256 192.056 277.369 192.656 277.425C193.237 277.481 194.194 277.556 194.231 277.162C194.288 276.787 194.063 274.762 193.575 274.894Z" fill="#0B4870"/>
<path d="M192.562 230.606C192.562 230.606 190.387 250.144 190.256 252.694C190.125 255.244 190.125 256.125 190.256 257.681C190.387 259.238 191.531 272.287 191.531 272.287L193.744 272.419C193.744 272.419 195.394 258.188 196.05 255.75C196.687 253.313 199.219 240.975 199.219 240.975L196.312 228.356L192.562 230.606Z" fill="#0E538C"/>
<path d="M203.1 272.25C203.1 272.25 202.987 273.338 203.1 274.519C203.325 275.325 203.194 275.588 203.194 275.588L199.8 275.606C199.8 275.606 201.225 274.819 200.869 271.613C200.494 268.406 203.1 272.25 203.1 272.25Z" fill="#FCD2B1"/>
<path d="M203.006 274.894C203.006 274.894 201.544 275.4 200.081 275.025C198.375 275.756 197.175 276.037 195.619 276.225C194.063 276.412 194.344 277.575 196.988 277.425C199.631 277.256 201.488 277.369 202.088 277.425C202.669 277.481 203.625 277.556 203.663 277.162C203.7 276.787 203.494 274.762 203.006 274.894Z" fill="#0B4870"/>
<path d="M196.931 230.606C196.931 230.606 198.769 250.219 198.638 252.769C198.506 255.319 200.869 272.306 200.869 272.306L203.1 272.344C203.1 272.344 203.681 257.419 203.681 254.906C203.681 252.506 204.469 233.044 204.469 233.044L201.188 228.356L196.931 230.606Z" fill="#0E538C"/>
<path d="M195.656 217.013C195.656 217.013 205.631 217.706 206.269 219.956C206.906 222.206 206.062 238.95 206.062 238.95C206.062 238.95 196.256 241.688 191.531 237.131C191.869 235.519 193.312 219.544 195.656 217.013Z" fill="#F92E4B"/>
<path d="M199.237 215.25L198.3 218.775C198.3 218.775 198.619 220.369 200.381 220.219C202.144 220.069 202.331 219.038 202.331 219.038L201.637 215.044C201.656 215.044 199.95 214.744 199.237 215.25Z" fill="#FCD2B1"/>
<path d="M198.131 209.737C198.131 209.737 195.919 213.075 196.331 214.237C196.744 215.4 198.281 216.356 201.694 216.394C202.837 216.112 203.775 212.531 203.662 211.8C202.987 207.094 199.294 208.819 198.131 209.737Z" fill="#FFE3CA"/>
<path d="M197.531 210.056C198.731 211.181 199.369 210.975 200.944 210.919C201.9 210.881 202.294 211.65 202.05 212.138C201.806 212.625 200.756 213.637 201.525 213.712C202.312 213.787 202.256 212.55 202.8 213.075C203.344 213.619 202.162 215.044 202.744 215.344C203.325 215.644 205.331 215.025 204.844 213.675C204.375 212.325 208.594 208.65 201.656 206.587C199.875 206.062 199.237 206.25 198.656 206.212C197.306 206.119 197.362 209.906 197.531 210.056Z" fill="#0B4870"/>
<path opacity="0.2" d="M156.975 214.631C156.975 202.369 158.363 192.713 161.138 185.606C163.913 178.519 168.394 172.369 174.619 167.156C180.825 161.944 185.55 157.181 188.775 152.869C192 148.538 193.631 143.775 193.631 138.581C193.631 125.906 188.175 119.569 177.263 119.569C172.219 119.569 168.15 121.425 165.056 125.1C161.944 128.794 160.312 133.781 160.144 140.081H117.562C117.731 123.3 123.019 110.231 133.425 100.856C143.831 91.5 155.831 86.1938 174.638 86.1938C193.35 86.1938 210.45 91.1438 220.744 99.7875C231.019 108.431 236.175 120.731 236.175 136.669C236.175 143.644 234.788 149.981 232.013 155.681C229.238 161.381 224.794 167.231 218.662 173.175L204.188 186.656C200.081 190.594 197.213 194.644 195.619 198.806C194.025 202.969 193.144 208.237 192.975 214.612H156.975V214.631ZM151.819 252.919C151.819 246.713 157.612 236.606 162.112 232.612C162.112 232.612 168 231.019 174.731 231.019C181.444 231.019 187.688 233.625 192.169 237.619C196.65 241.613 198.9 246.713 198.9 252.919C198.9 259.125 196.65 264.225 192.169 268.219C187.669 272.213 182.081 274.2 175.369 274.2C168.656 274.2 163.05 272.213 158.569 268.219C154.069 264.225 151.819 259.125 151.819 252.919Z" fill="#F92E4B"/>
<path d="M151.331 214.631C151.331 202.369 152.719 192.713 155.494 185.606C158.269 178.519 162.75 172.369 168.975 167.156C175.181 161.944 179.906 157.181 183.131 152.869C186.356 148.538 187.987 143.775 187.987 138.581C187.987 125.906 182.531 119.569 171.619 119.569C166.575 119.569 162.506 121.425 159.413 125.1C156.3 128.794 154.669 133.781 154.5 140.081H111.938C112.088 123.319 117.375 110.25 127.781 100.875C138.188 91.5188 152.794 86.85 171.6 86.85C190.313 86.85 204.825 91.1813 215.1 99.825C225.375 108.469 230.531 120.769 230.531 136.706C230.531 143.681 229.144 150.019 226.369 155.719C223.594 161.419 219.15 167.269 213.019 173.213L198.544 186.694C194.438 190.631 191.569 194.681 189.975 198.844C188.381 203.006 187.5 208.275 187.331 214.65H151.331V214.631ZM146.156 252.919C146.156 246.713 148.406 241.613 152.888 237.619C157.369 233.625 162.975 231.638 169.688 231.638C176.4 231.638 182.006 233.625 186.487 237.619C190.969 241.613 193.219 246.713 193.219 252.919C193.219 259.125 190.969 264.225 186.487 268.219C181.987 272.213 176.4 274.2 169.688 274.2C162.975 274.2 157.369 272.213 152.888 268.219C148.406 264.225 146.156 259.125 146.156 252.919Z" fill="#F92E4B"/>
<path d="M206.831 243.6C206.831 243.6 205.181 244.162 204.769 247.331C204.731 247.612 205.256 247.575 205.312 247.294L206.175 245.531C206.381 246.038 206.044 246.094 205.931 246.6L205.537 247.894C205.387 248.4 205.837 248.869 206.344 248.737C206.812 248.606 207.319 248.437 207.525 248.212C207.975 247.725 209.081 244.856 208.725 244.144C208.369 243.45 207.6 242.944 206.831 243.6Z" fill="#FCD2B1"/>
<path d="M203.344 219.544C204.337 218.344 206.25 218.494 207.112 219.806C208.612 222.075 211.406 226.725 211.388 229.687C211.519 233.119 208.725 244.181 208.725 244.181C208.725 244.181 207.431 244.181 206.831 243.619C206.869 242.719 207.263 232.162 207.263 232.162C207.263 232.162 203.419 226.481 202.575 223.856C202.05 222.206 202.481 220.594 203.344 219.544Z" fill="#F92E4B"/>
<path d="M128.606 205.725C128.606 205.725 128.512 202.538 129.637 201.206C131.1 199.463 134.794 199.294 136.425 200.475C138.244 201.788 139.5 204.881 138.581 207.375C141.356 208.463 144.394 209.831 143.231 217.219C140.869 232.106 122.156 225.713 126.431 212.55C127.387 209.663 128.606 205.725 128.606 205.725Z" fill="#0B4870"/>
<path d="M138.788 268.35C138.788 268.35 139.05 269.738 139.031 270.825C138.881 271.594 139.031 271.819 139.031 271.819L142.163 271.575C142.163 271.575 140.775 270.956 140.869 267.956C140.981 264.975 138.788 268.35 138.788 268.35Z" fill="#B97A59"/>
<path d="M138.994 271.069C138.994 271.069 140.362 271.538 141.712 271.181C143.306 271.856 144.413 272.119 145.856 272.287C147.3 272.456 147.037 273.544 144.581 273.394C142.125 273.244 140.4 273.337 139.856 273.394C139.313 273.45 138.431 273.506 138.394 273.15C138.356 272.813 138.544 270.956 138.994 271.069ZM139.95 229.95C139.95 229.95 141.975 248.1 142.087 250.462C142.2 252.825 142.2 253.65 142.087 255.094C141.975 256.538 140.888 268.65 140.888 268.65L138.825 268.763C138.825 268.763 137.287 255.544 136.687 253.294C136.087 251.025 133.744 239.588 133.744 239.588L136.444 227.869L139.95 229.95Z" fill="#0B4870"/>
<path d="M130.162 268.612C130.162 268.612 130.275 269.625 130.162 270.712C129.956 271.462 130.087 271.688 130.087 271.688L133.237 271.706C133.237 271.706 131.906 270.975 132.244 267.994C132.581 265.031 130.162 268.612 130.162 268.612Z" fill="#B97A59"/>
<path d="M130.237 271.069C130.237 271.069 131.606 271.538 132.956 271.181C134.55 271.856 135.656 272.119 137.1 272.287C138.544 272.456 138.281 273.544 135.825 273.394C133.369 273.244 131.644 273.338 131.1 273.394C130.556 273.45 129.675 273.506 129.638 273.15C129.6 272.813 129.806 270.956 130.237 271.069ZM135.881 229.95C135.881 229.95 134.175 248.156 134.288 250.519C134.4 252.881 132.225 268.669 132.225 268.669L130.163 268.706C130.163 268.706 129.638 254.85 129.638 252.506C129.638 250.294 128.906 232.2 128.906 232.2L131.962 227.85L135.881 229.95Z" fill="#0B4870"/>
<path d="M142.331 204.188C142.331 204.188 140.925 202.988 140.681 202.575C139.987 201.506 138.862 201.263 138.131 201.225C137.756 201.206 137.456 201.506 137.456 201.863C137.456 201.956 137.512 202.05 137.587 202.106L139.425 202.988C139.519 203.025 139.519 203.044 139.594 203.119L139.669 203.269C139.8 203.438 139.781 203.513 139.556 203.55L139.312 203.531C139.2 203.55 138.356 203.231 138.262 203.175C138.112 203.1 137.925 203.231 137.944 203.4C137.944 203.531 138.019 203.663 138.15 203.719L139.575 204.619L140.737 205.031C143.325 207.094 145.519 208.613 145.781 209.25C143.081 211.181 137.812 213.525 137.812 213.525L139.987 215.981C139.987 215.981 146.606 212.475 148.162 211.2C151.444 208.069 144.994 205.388 142.331 204.188Z" fill="#B97A59"/>
<path d="M138.037 219.356C137.756 220.013 139.894 229.125 140.25 231.225C140.25 231.225 140.212 231.225 140.119 231.206C139.181 231.075 133.481 230.306 128.887 232.238L128.475 219.375L128.456 218.906C128.456 218.906 128.456 218.419 128.494 217.669C128.606 216.131 128.906 213.563 129.9 211.894C130.406 211.031 131.081 210.413 132 210.338C134.869 210.056 137.137 211.294 138.225 211.631C140.025 212.194 141.094 211.856 141.094 211.856C141.094 211.856 142.519 215.4 141.806 216.038L138.806 217.294C138.844 217.256 138.319 218.681 138.037 219.356Z" fill="#F92E4B"/>
<path d="M137.288 202.144C137.288 202.144 139.106 206.363 137.737 208.275C136.706 209.719 134.906 209.756 134.906 209.756V211.838C134.906 211.838 134.7 212.025 134.344 212.044C133.706 212.081 132.038 211.069 132.038 211.069V202.894L137.288 202.144ZM128.156 218.456C128.156 218.456 129.6 225.788 130.237 227.644C130.575 229.125 140.025 229.556 140.625 229.669C141.769 230.681 142.406 230.644 142.781 230.644C143.062 230.644 142.931 230.7 144.431 230.794C145.106 230.831 145.556 230.138 145.237 229.538C144.45 228.769 144.506 229.05 143.437 228.825C142.294 228.6 142.013 228.469 142.2 228.263C143.344 226.988 142.313 226.725 141.169 228.038C141.094 228.113 140.963 228.056 140.85 228.056C138.656 227.531 133.481 226.069 132.769 226.05C131.944 222.938 131.719 217.406 131.719 217.406L128.156 218.456Z" fill="#B97A59"/>
<path d="M127.594 219.731C127.594 219.731 126.975 213.694 128.756 212.25C130.537 210.806 132.562 213.131 132.469 216.187C132.375 219.225 132.431 220.331 132.431 220.331C132.431 220.331 129.694 221.25 127.594 219.731Z" fill="#F92E4B"/>
<path d="M137.456 201.675C137.456 201.675 136.519 207.113 134.25 206.138C132.187 205.256 133.219 206.1 131.325 207.919C130.763 208.463 131.212 202.163 131.212 202.163L137.456 201.675Z" fill="#0B4870"/>
</svg>
