<?xml version="1.0" standalone="no"?>
<!DOCTYPE svg PUBLIC "-//W3C//DTD SVG 20010904//EN"
 "http://www.w3.org/TR/2001/REC-SVG-20010904/DTD/svg10.dtd">
<svg version="1.0" xmlns="http://www.w3.org/2000/svg"
 width="656.000000pt" height="656.000000pt" viewBox="0 0 656.000000 656.000000"
 preserveAspectRatio="xMidYMid meet">

<g transform="translate(0.000000,656.000000) scale(0.100000,-0.100000)"
fill="#000000" stroke="none">
<path d="M3070 6554 c-160 -15 -323 -37 -435 -59 -655 -131 -1238 -450 -1710
-936 -335 -345 -564 -713 -731 -1173 -262 -720 -256 -1531 17 -2260 154 -413
401 -804 703 -1115 476 -489 1046 -805 1701 -941 80 -16 148 -30 150 -30 3 0
5 515 5 1145 l0 1145 -415 0 -415 0 0 475 0 475 415 0 415 0 0 433 c0 467 6
545 55 732 61 234 206 459 381 591 144 108 327 183 539 221 170 30 519 21 868
-24 l127 -16 0 -403 0 -404 -237 0 c-348 0 -460 -28 -575 -143 -54 -54 -90
-118 -115 -204 -13 -48 -17 -124 -20 -420 l-5 -363 457 0 457 0 -4 -27 c-2
-16 -36 -229 -74 -475 l-69 -448 -382 0 -383 0 0 -1145 c0 -630 2 -1145 5
-1145 2 0 70 14 150 30 813 169 1527 636 2006 1310 526 740 721 1654 544 2545
-95 474 -298 931 -582 1309 -548 729 -1346 1193 -2243 1302 -120 15 -507 26
-600 18z"/>
</g>
</svg>
