<?xml version="1.0" standalone="no"?>
<!DOCTYPE svg PUBLIC "-//W3C//DTD SVG 20010904//EN"
 "http://www.w3.org/TR/2001/REC-SVG-20010904/DTD/svg10.dtd">
<svg version="1.0" xmlns="http://www.w3.org/2000/svg"
 width="656.000000pt" height="656.000000pt" viewBox="0 0 656.000000 656.000000"
 preserveAspectRatio="xMidYMid meet">

<g transform="translate(0.000000,656.000000) scale(0.100000,-0.100000)"
fill="#000000" stroke="none">
<path d="M2150 6549 c-460 -15 -736 -56 -975 -146 -275 -104 -451 -218 -646
-420 -140 -145 -218 -255 -300 -426 -125 -263 -184 -529 -211 -949 -18 -271
-18 -2364 0 -2648 45 -748 229 -1164 682 -1542 219 -182 546 -313 918 -368
268 -39 489 -45 1672 -45 1180 0 1382 6 1652 45 428 63 759 212 1023 462 376
356 535 754 577 1448 18 284 18 2377 0 2648 -20 321 -54 522 -123 726 -96 287
-223 491 -436 697 -181 175 -327 267 -581 365 -243 94 -511 135 -1002 154
-306 12 -1873 11 -2250 -1z m1565 -579 c901 -12 1120 -25 1335 -80 369 -95
642 -324 779 -658 66 -161 103 -350 122 -632 16 -239 23 -1915 10 -2320 -18
-566 -49 -759 -157 -998 -70 -155 -215 -331 -351 -428 -180 -128 -423 -207
-718 -234 -461 -40 -2483 -41 -2905 0 -219 21 -348 50 -511 115 -278 112 -493
325 -602 600 -123 311 -137 503 -137 1950 0 1180 11 1492 61 1705 60 262 146
433 294 589 201 211 439 319 815 366 252 32 874 40 1965 25z"/>
<path d="M4894 5396 c-151 -56 -254 -204 -254 -366 0 -215 175 -390 389 -390
123 0 234 54 310 150 82 103 106 254 60 376 -75 200 -304 305 -505 230z"/>
<path d="M3055 4949 c-296 -45 -558 -154 -797 -333 -84 -63 -252 -231 -324
-326 -122 -158 -224 -372 -283 -590 -68 -250 -68 -590 0 -840 84 -311 229
-559 451 -776 118 -115 203 -183 303 -241 292 -170 556 -243 875 -243 460 0
877 175 1196 502 117 119 185 205 241 303 171 296 243 556 243 875 0 377 -113
714 -344 1022 -62 84 -231 251 -326 325 -204 157 -493 277 -767 318 -112 16
-368 19 -468 4z m438 -600 c234 -47 426 -153 584 -323 193 -206 293 -462 293
-748 0 -605 -484 -1088 -1090 -1088 -283 0 -540 101 -746 293 -124 116 -205
234 -267 392 -178 450 -40 967 336 1263 248 195 582 274 890 211z"/>
</g>
</svg>
