<?xml version="1.0" standalone="no"?>
<!DOCTYPE svg PUBLIC "-//W3C//DTD SVG 20010904//EN"
 "http://www.w3.org/TR/2001/REC-SVG-20010904/DTD/svg10.dtd">
<svg version="1.0" xmlns="http://www.w3.org/2000/svg"
 width="656.000000pt" height="656.000000pt" viewBox="0 0 656.000000 656.000000"
 preserveAspectRatio="xMidYMid meet">

<g transform="translate(0.000000,656.000000) scale(0.100000,-0.100000)"
fill="#000000" stroke="none">
<path d="M4289 5924 c-154 -28 -372 -115 -504 -203 -95 -62 -220 -176 -291
-265 -207 -256 -304 -531 -304 -856 0 -120 10 -231 26 -282 5 -16 -2 -18 -48
-18 -76 0 -289 26 -453 55 -498 88 -998 293 -1440 588 -257 172 -561 442 -751
667 -37 44 -71 80 -75 80 -22 0 -117 -237 -150 -375 -30 -120 -37 -368 -14
-509 38 -247 138 -463 304 -659 59 -70 184 -185 251 -230 l24 -17 -29 0 c-130
1 -376 66 -517 136 l-67 34 4 -28 c2 -15 6 -69 9 -120 3 -51 15 -129 26 -172
69 -272 170 -451 359 -641 124 -124 217 -193 358 -263 84 -42 264 -106 301
-106 41 -1 -18 -20 -113 -36 -76 -13 -134 -15 -259 -11 -89 3 -171 8 -183 12
l-23 7 19 -53 c62 -179 174 -351 322 -495 121 -117 222 -188 363 -255 164 -78
302 -115 464 -126 l93 -6 -68 -50 c-365 -269 -778 -435 -1248 -503 -129 -19
-522 -26 -625 -11 l-55 8 110 -66 c481 -286 1010 -461 1569 -520 173 -18 572
-21 750 -5 284 25 597 85 831 160 689 220 1227 578 1695 1125 260 304 456 621
621 1007 206 483 303 927 316 1453 l6 240 80 60 c111 84 314 281 412 400 102
124 177 226 171 232 -3 3 -51 -13 -108 -35 -194 -75 -366 -123 -543 -151 -38
-6 -83 -14 -100 -17 -26 -5 -23 -1 25 32 192 131 354 313 455 514 34 68 75
167 75 183 0 4 -46 -16 -102 -47 -192 -101 -406 -183 -622 -236 l-119 -30 -96
84 c-202 176 -422 282 -665 321 -113 19 -364 18 -467 -1z"/>
</g>
</svg>
